<svg width="727" height="112" viewBox="0 0 727 112" fill="none" xmlns="http://www.w3.org/2000/svg">
<g clip-path="url(#clip0_2539_102)">
<path d="M105.51 9.14C105.11 7.79 104.06 6.73 102.71 6.34C87.11 1.76 71.97 0 55.92 0C39.87 0 24.74 1.76 9.14 6.33C7.79 6.73 6.73 7.78 6.34 9.13C1.76 24.74 0 39.88 0 55.92C0 71.96 1.76 87.11 6.33 102.71C6.73 104.06 7.78 105.12 9.13 105.51C24.73 110.09 39.87 111.84 55.92 111.84C71.97 111.84 87.11 110.08 102.71 105.51C104.06 105.11 105.12 104.06 105.51 102.71C110.09 87.11 111.84 71.97 111.84 55.92C111.84 39.87 110.08 24.73 105.5 9.13L105.51 9.14ZM93.7 68.39H68.4V93.7H43.46V68.39H18.16V43.46H43.46V18.14H68.4V43.46H93.7V68.39Z" fill="#509F33"/>
<path d="M407.84 29.75H433V100.46H454.52V29.75H479.68V11.38H407.84V29.75Z" fill="#001F5F"/>
<path d="M490.91 100.46H552.47V82.09H512.42V63.6H548.92V46.36H512.42V29.75H552.47V11.38H490.91V100.46Z" fill="#001F5F"/>
<path d="M609.05 55.06L643.46 11.38H618.14L589.31 49.16V11.38H567.8V100.46H589.31V62.46L618.14 100.46H645.05L609.05 55.06Z" fill="#001F5F"/>
<path d="M358.45 9.95999C331.23 9.95999 310.5 27.25 310.5 55.92C310.5 84.59 331.23 101.88 358.45 101.88C385.67 101.88 406.4 84.59 406.4 55.92C406.4 27.25 385.67 9.95999 358.45 9.95999ZM358.45 82.7C343.21 82.7 333.29 71.1 333.29 55.92C333.29 40.74 343.21 29.14 358.45 29.14C373.69 29.14 383.61 40.74 383.61 55.92C383.61 71.1 373.69 82.7 358.45 82.7Z" fill="#001F5F"/>
<path d="M271.48 11.38H233.96V100.46H255.43V72.87H270.82C290.92 72.87 304.2 61.09 304.2 42.3C304.2 23.51 291.16 11.38 271.48 11.38ZM266.82 55.32H255.44V29.36H266.82C276.15 29.36 281.77 33.82 281.77 42.31C281.77 50.8 276.15 55.32 266.82 55.32Z" fill="#001F5F"/>
<path d="M168.65 11.38L132.42 100.46H155.82L162.58 82.09H197.01L203.75 100.46H227.66L191.81 11.38H168.66H168.65ZM168.52 65.97L179.83 35.26L191.1 65.97H168.52Z" fill="#001F5F"/>
<path d="M709.74 79.12V5.85999H696.56C695.12 10.81 690.18 15.72 680.59 15.72H670.57V31.26H680.11C684 31.26 685.78 33.04 685.78 36.93V79.12C685.78 83.01 684 84.79 680.11 84.79H667.45V100.46H726.39V84.79H715.41C711.52 84.79 709.74 83.01 709.74 79.12Z" fill="#509F33"/>
</g>
<defs>
<clipPath id="clip0_2539_102">
<rect width="726.39" height="111.85" fill="white"/>
</clipPath>
</defs>
</svg>
