<svg height="56" width="106" viewBox="0 0 106 56" xmlns="http://www.w3.org/2000/svg"><g fill="none"><path fill="#E31D14" d="M0 0h106v56H0z"></path><path d="M29.4 26.67c0-2.88-1.5-5.33-4.45-6.3a25.8 25.8 0 002.64-6.86c.85-3.65.24-4.96-.83-5.23-1.07-.27-2.2.6-3.05 4.25a25.8 25.8 0 00-.7 7.45 11 11 0 00-2.54.06c.29-1.82.15-4.94-.3-7.43-.66-3.7-1.74-4.63-2.82-4.42-1.09.21-1.77 1.48-1.1 5.17.45 2.55 1.43 5.58 2.34 7.15-2.7 1.05-4 3.41-4 6.16 0 2.5 1.51 4.01 3.74 4.73h7.33c2.23-.72 3.74-2.22 3.74-4.73z" fill="#FFF"></path><path d="M31.73 32.27v-.88H12.18v.88h3.58c.39.81 1.36 3.92-1.14 11.7H29.3c-2.5-7.78-1.52-10.89-1.13-11.7h3.56z" fill="#1D1D1B"></path><path d="M20 25.3c-.77 0-1.4-.72-1.4-1.61 0-.52.22-.98.55-1.27-1.08.06-1.95 1.07-1.95 2.32 0 1.29.92 2.33 2.05 2.33s2.05-1.04 2.05-2.33l-.03-.4c-.22.57-.7.96-1.27.96" fill="#00A0D3"></path><path d="M20 25.3c.57 0 1.05-.4 1.27-.95-.17-1.1-1-1.93-2.02-1.93h-.1c-.33.3-.54.75-.54 1.27 0 .89.62 1.6 1.39 1.6" fill="#1D1D1B"></path><path d="M26.72 23.9c-.09.79-.66 1.4-1.37 1.4-.77 0-1.4-.72-1.4-1.61 0-.5.21-.95.53-1.24-.97.18-1.71 1.14-1.71 2.3 0 1.28.91 2.32 2.05 2.32 1.13 0 2.05-1.04 2.05-2.33 0-.3-.06-.58-.15-.84" fill="#00A0D3"></path><path d="M25.35 25.3c.7 0 1.28-.61 1.37-1.4-.3-.87-1.03-1.48-1.9-1.48-.12 0-.23 0-.34.03-.32.3-.52.74-.52 1.24 0 .89.62 1.6 1.4 1.6m0 2.78l-.13.1c.18.27.28.6.28.94 0 .9-.71 1.64-1.59 1.64-.87 0-1.57-.72-1.58-1.62.66-.11 1.16-.59 1.16-1.16 0-.65-.65-1.18-1.45-1.18-.8 0-1.44.53-1.44 1.18 0 .65.64 1.18 1.44 1.18h.02c-.02.89-.72 1.6-1.58 1.6-.88 0-1.59-.74-1.59-1.64 0-.34.1-.67.28-.95l-.13-.09c-.2.3-.31.66-.31 1.04 0 1 .78 1.8 1.75 1.8.85 0 1.55-.62 1.72-1.45.16.83.87 1.46 1.71 1.46.97 0 1.76-.82 1.76-1.81 0-.38-.11-.73-.32-1.04zm-13.1.2v.34h2.7l-.11-.34h-2.6zm0-.89v.35h2.44l-.06-.35h-2.38zm2.34-.82h-2.34v.34h2.35l-.01-.23v-.1zm16.98 1.17v-.35h-2.23c-.01.12-.04.23-.06.35h2.29zm0 .88v-.34h-2.43l-.12.34h2.55zm-2.19-1.73h2.19v-.34h-2.19v.34z" fill="#1D1D1B"></path><path d="M64.33 34.35c1.25 0 3.35.43 3.35 2.04v.92c0 .07-.05.12-.12.12h-2.02a.12.12 0 01-.12-.12v-.42c0-.35-.6-.53-1.03-.53-.79 0-1.26.27-1.26.71 0 .5.79.8 1.7 1.14 1.42.52 3.2 1.18 3.2 3.08 0 1.73-1.5 2.94-3.66 2.94a5.12 5.12 0 01-3.92-1.69.12.12 0 010-.14l1.08-1.5a.12.12 0 01.18 0c.02 0 1.16 1.3 2.66 1.3.26 0 1.13-.05 1.13-.78 0-.44-.75-.74-1.62-1.09-1.45-.58-3.24-1.3-3.24-3.17 0-1.7 1.45-2.8 3.7-2.8zm-5.82.33c.06 0 .11.05.11.12v6.73c0 .18.1.28.28.28h.58c.07 0 .12.05.12.1v1.9c0 .06-.05.11-.12.11h-1.95c-.83 0-1.3-.4-1.3-1.12v-.25a3.6 3.6 0 01-3.04 1.58c-2.15 0-3.24-1.19-3.24-3.54v-3.5c0-.19-.08-.27-.28-.27h-.58a.11.11 0 01-.11-.11V34.8c0-.06.05-.12.11-.12h2.02c.9 0 1.3.42 1.3 1.3v4.15c0 1.23.38 1.73 1.3 1.73 1.67 0 2.43-1.52 2.43-2.93V34.8c0-.07.05-.12.11-.12zm-18.37-3.24c.89 0 1.32.42 1.32 1.3v2.9l-.01.36c.55-.8 1.6-1.5 2.99-1.5 2.16 0 3.25 1.2 3.25 3.54v3.52c0 .18.1.27.28.27h.58c.06 0 .11.06.11.12v1.89c0 .06-.05.11-.11.11h-2.01c-.9 0-1.3-.4-1.3-1.31V38.5c0-1.22-.38-1.72-1.32-1.72-1.08 0-2 .7-2.33 1.79-.09.31-.13.67-.13 1.13v4.14c0 .06-.05.11-.12.11H39.1a.11.11 0 01-.11-.11v-10c0-.19-.09-.27-.28-.27h-.58a.11.11 0 01-.11-.11v-1.91c0-.06.05-.11.11-.11zm50.07-12.4c1.24 0 3.35.42 3.35 2.02V22c0 .06-.06.11-.12.11h-2.02a.12.12 0 01-.12-.11v-.42c0-.35-.6-.53-1.04-.53-.79 0-1.26.26-1.26.7 0 .51.79.8 1.7 1.14 1.42.53 3.2 1.19 3.2 3.1 0 1.72-1.5 2.92-3.66 2.92a5.12 5.12 0 01-3.92-1.68.12.12 0 010-.14l1.08-1.5a.12.12 0 01.19 0s1.16 1.3 2.65 1.3c.27 0 1.13-.05 1.13-.78 0-.44-.75-.74-1.62-1.09-1.44-.58-3.23-1.3-3.23-3.17 0-1.7 1.44-2.8 3.69-2.8zm-50.07-2.95c.9 0 1.32.41 1.32 1.31v2.37l-.01.45a3.43 3.43 0 012.6-1.06c2.46 0 4.12 1.94 4.12 4.84 0 2.85-1.75 4.84-4.26 4.84-1.4 0-2.23-.69-2.58-1.07v.74c0 .07-.05.12-.1.12H39.1a.11.11 0 01-.12-.12v-10c0-.2-.08-.28-.27-.28h-.58a.11.11 0 01-.12-.12V16.2c0-.06.05-.11.12-.11zm12.84 3.07c2.66 0 4.01 1.25 4.01 3.7v3.37c0 .19.1.28.28.28h.58c.06 0 .11.05.11.1v1.9c0 .07-.05.12-.11.12h-1.9c-.78 0-1.26-.42-1.26-1.1a3.12 3.12 0 01-2.63 1.3c-1.59 0-3.2-.86-3.2-2.8 0-3.14 4.57-3.3 5.49-3.3h.17c-.01-1.16-.45-1.61-1.55-1.61-.38 0-1.1.1-1.1.49v.35c0 .06-.05.11-.1.11h-2.1a.11.11 0 01-.11-.11v-.83c0-1.83 2.62-1.97 3.42-1.97zm27.54 0c2.66 0 4.01 1.25 4.01 3.7v3.37c0 .19.1.28.28.28h.58c.06 0 .11.05.11.1v1.9c0 .07-.05.12-.11.12h-1.9c-.78 0-1.26-.42-1.26-1.1a3.12 3.12 0 01-2.63 1.3c-1.59 0-3.19-.86-3.19-2.8 0-3.14 4.56-3.3 5.48-3.3h.17c-.01-1.16-.45-1.61-1.55-1.61-.38 0-1.1.1-1.1.49v.35c0 .06-.05.11-.1.11h-2.1a.11.11 0 01-.11-.11v-.83c0-1.83 2.62-1.97 3.42-1.97zm-16.18.09c.3 0 .56.07.57.07.05.01.08.06.08.1v2.22a.11.11 0 01-.11.12h-.03s-.26-.07-.65-.07c-.87 0-1.95.47-2.35 1.8-.13.46-.2.94-.2 1.45v3.57c0 .07-.04.12-.1.12H59.3a.11.11 0 01-.11-.12V21.8c0-.2-.08-.28-.28-.28h-.58a.11.11 0 01-.1-.11v-1.92c0-.06.04-.11.1-.11h1.93c.87 0 1.32.4 1.32 1.21v.51a3.13 3.13 0 012.75-1.84zm7-.1c2.17 0 3.27 1.2 3.27 3.56v3.52c0 .19.1.28.28.28h.58c.06 0 .11.05.11.1v1.9c0 .07-.05.12-.11.12h-2.02c-.9 0-1.31-.4-1.31-1.32v-4.14c0-1.23-.38-1.73-1.3-1.73-1.12 0-2 .67-2.32 1.76a3.7 3.7 0 00-.18 1.17v4.14c0 .07-.05.12-.1.12H66a.11.11 0 01-.11-.12v-9.03c0-.06.05-.1.11-.1h2.23c.06 0 .11.04.11.1v1.16a3.59 3.59 0 013-1.48zM54.56 24.5h-.27c-.49 0-2.92.07-2.92 1.43 0 .6.46.93 1.25.93 1.11 0 1.94-1.2 1.94-2.26v-.1zm27.54 0h-.27c-.49 0-2.92.07-2.92 1.43 0 .6.46.93 1.25.93 1.11 0 1.94-1.2 1.94-2.26v-.1zm-38.55-3.19c-1.04 0-2.15.72-2.15 2.74 0 1.29.66 2.67 2.13 2.67 1.27 0 2.16-1.1 2.16-2.69 0-1.62-.86-2.72-2.14-2.72z" fill="#FFF"></path></g></svg>