<?xml version="1.0" encoding="utf-8"?>
<!-- Generator: Adobe Illustrator 28.3.0, SVG Export Plug-In . SVG Version: 6.00 Build 0)  -->
<svg version="1.0" id="Layer_1" xmlns="http://www.w3.org/2000/svg" xmlns:xlink="http://www.w3.org/1999/xlink" x="0px" y="0px"
	 viewBox="0 0 1563.8 444" style="enable-background:new 0 0 1563.8 444;" xml:space="preserve">
<style type="text/css">
	.st0{fill:#25282A;}
</style>
<g>
	<path class="st0" d="M200.6,112c-9.2-1-19.8-1-32-1h-58.4v222h84c34.6,0,69.7-21.1,69.7-61.5c0-36.6-29.9-52.7-29.9-52.7
		c0,0,23.8-12.8,23.8-43.7C257.7,147.9,239.9,116.4,200.6,112z M154.6,151.9h33.8c12,0,25,9.5,25,25c0,15.2-13,24.6-25,24.6h-33.8
		V151.9z M194.2,292h-39.6v-49.6h39.6c12.3,0,25.3,8.7,25.3,25C219.5,283.6,206.8,292,194.2,292z"/>
	<polygon class="st0" points="280.5,111 280.5,333 386.9,333 386.9,290.3 324.9,290.3 324.9,111 	"/>
	<rect x="402" y="111" class="st0" width="44.4" height="222"/>
	<path class="st0" d="M625.2,111h-44.4c0,0,18.8,138.5-55.6,167.3l-9.3,3.6V111h-44.4v221.9c0,0,0,0,0,0
		C662.9,328.1,625.2,111,625.2,111z"/>
	<polygon class="st0" points="1279.7,153.7 1279.7,111 1144.8,111 1144.8,333 1279.7,333 1279.7,290.3 1189.2,290.3 1189.2,242.5 
		1250.7,242.5 1250.7,201.5 1189.2,201.5 1189.2,153.7 	"/>
	<path class="st0" d="M785.9,333V111.1c0,0,0,0,0,0c-83.1,2.2-153.7,43.8-153.7,155.7V333h44.4l0.1-55h64.8v55H785.9z M679.1,235.4
		c0,0,4.9-50.8,53.1-69.6l9.3-3.7v73.3H679.1z"/>
	<path class="st0" d="M1126.4,332.9c7.9-75.6-16.4-112.4-53.5-125.6l62.2-96.4h-52.5l-60.8,100.6V110.9h-44.4v222l44.4-0.1v-95.2
		c57.8-4.9,65.3,42,59.6,95.4L1126.4,332.9z"/>
	<path class="st0" d="M959.5,332.9c7.9-75.6-16.4-112.4-53.5-125.6l62.2-96.4h-52.5l-60.8,100.6V110.9h-44.4v222l44.4-0.1v-95.2
		c57.8-4.9,65.3,42,59.6,95.4L959.5,332.9z"/>
	<path class="st0" d="M1400.9,333h50.3l-54.4-88.1h48.5c10.5-97.2-48.3-145.7-147.4-133.9v222h44.7l-0.3-96.4L1400.9,333z
		 M1342.3,152.1c41.6-3.6,61.5,30.3,61.5,56.3h-61.5V152.1z"/>
</g>
</svg>
