<svg width="123" height="35" viewBox="0 0 123 35" fill="none" xmlns="http://www.w3.org/2000/svg">
<path d="M39.5843 11.1816C33.7643 11.1816 28.6851 15.2984 28.6851 22.6567C28.6851 30.0061 33.8348 34.1764 39.5754 34.1764C45.413 34.1764 50.4835 30.0418 50.4835 22.6567C50.4835 15.2627 45.3866 11.1816 39.5843 11.1816ZM39.5754 33.7121C34.6637 33.7121 34.1876 30.1847 34.1876 22.6478C34.1876 15.1198 34.6373 11.6371 39.549 11.6371C44.399 11.6371 44.9721 15.0841 44.9721 22.6478C44.9633 30.2204 44.4342 33.7121 39.5754 33.7121Z" fill="white"/>
<path d="M117.898 21.2547C117.845 21.2279 113.365 19.2901 111.478 18.4775C109.979 17.8345 109.168 16.8433 109.018 15.4502C108.78 13.1999 110.323 11.8336 113.339 11.5925C115.64 11.4049 117.933 12.1997 119.555 14.6822C120.596 16.2807 120.834 18.0399 120.834 18.0399H120.993V11.6907H120.922L119.564 12.4855C119.476 12.4408 116.628 10.8781 113.303 11.1281C108.189 11.5121 106.205 15.2091 106.205 17.8524C106.205 21.728 108.621 22.5942 110.535 23.4515C111.725 23.9784 115.605 25.809 116.91 26.4074C118.594 27.1843 119.388 28.4523 119.388 30.1669C119.388 32.578 117.607 33.6496 115.129 33.8371C111.469 34.114 109.432 31.9708 108.251 30.3901C107.034 28.756 106.531 26.4788 106.531 26.4788H106.364L106.355 31.1492V33.7121H106.425L108.03 32.7745C108.145 32.828 111.513 34.5783 115.305 34.3015C118.921 34.0425 122.721 31.5332 122.721 27.5236C122.73 23.3533 119.626 21.987 117.898 21.2547Z" fill="white"/>
<path d="M100.253 32.1761V11.7175H95.3943H92.9516V11.7889L95.3325 13.182V30.9081C94.292 31.8636 93.0663 32.837 90.8794 32.9531C88.2957 33.0959 86.3468 31.3635 86.3468 28.0951V11.7175H79.116V11.7889L81.488 13.1731C81.4792 17.1023 81.488 25.4876 81.488 26.6931C81.488 31.0777 83.9483 34.1675 88.5867 34.1675C92.1845 34.1675 94.2832 32.5512 95.3325 31.4885V33.6496H102.634V33.5782L100.253 32.1761Z" fill="white"/>
<path d="M74.7157 32.1851C74.7157 32.1851 74.7245 19.1294 74.7157 18.674C74.7157 14.2893 72.2554 11.1995 67.6171 11.1995C64.0193 11.1995 61.9206 12.8159 60.8712 13.8785V0.492432L55.9507 3.25181V32.1761L53.5698 33.5692V33.6407H63.2521V33.5692L60.8712 32.1761V14.459C61.9118 13.5035 63.1375 12.5301 65.3244 12.414C67.9081 12.2711 69.8569 14.0036 69.8569 17.2719V32.1761L67.4848 33.5692V33.6407H77.0966V33.5692L74.7157 32.1851Z" fill="white"/>
<path d="M21.5777 18.6293C19.9904 17.2809 17.83 16.4504 15.1669 16.2361V16.2093C17.0805 16.0218 18.7294 15.2984 19.9816 14.1822C21.322 12.9856 22.0362 11.4139 22.0362 9.64573C22.0362 6.65417 20.3167 3.25183 13.6767 3.25183H0.855097H0.819824V3.32327L3.20072 4.71635V32.1762L0.819824 33.5692V33.6407C0.819824 33.6407 6.56043 33.6407 13.4209 33.6407C18.2444 33.6407 20.6694 32.0333 21.6306 31.1492C23.3678 29.5597 24.2849 27.4075 24.2849 24.925C24.276 22.2817 23.3678 20.1564 21.5777 18.6293ZM12.1864 33.1227H8.14769V3.7787H11.5868C14.0294 3.7787 17.054 5.40397 17.054 9.38675C17.054 9.4314 17.0628 9.84219 17.0628 9.91363C17.0628 14.3072 14.1969 15.986 11.8689 15.986H10.2288V16.5129H11.8954C14.7877 16.5129 18.5443 18.6918 18.5443 24.5321C18.5443 24.6035 18.5531 25.2107 18.5531 25.2911C18.5443 30.7563 14.6555 33.1227 12.1864 33.1227Z" fill="white"/>
</svg>
