<?xml version="1.0" encoding="UTF-8"?>
<svg id="Layer_1" xmlns="http://www.w3.org/2000/svg" version="1.1" viewBox="0 0 185.199 39.6">
  <!-- Generator: Adobe Illustrator 29.7.1, SVG Export Plug-In . SVG Version: 2.1.1 Build 8)  -->
  <defs>
    <style>
      .st0 {
        fill: #282828;
      }

      .st1 {
        fill: #ff7720;
      }
    </style>
  </defs>
  <g>
    <g>
      <path class="st0" d="M154.113,32.456c-4.797,0-8.471-3.339-8.471-8.199s3.705-8.167,8.471-8.167,8.471,3.31,8.471,8.167-3.674,8.199-8.471,8.199ZM149.498,24.257c0,2.672,1.974,4.615,4.615,4.615s4.615-1.942,4.615-4.615-1.974-4.615-4.615-4.615-4.615,1.974-4.615,4.615Z"/>
      <path class="st0" d="M127.666,39.105v-22.742h3.795v1.852c.94-1.244,2.884-2.126,5.041-2.126,4.221,0,7.803,3.036,7.803,8.167,0,4.859-3.553,8.167-7.803,8.167-2.156,0-4.13-.912-5.041-2.156v8.837h-3.795ZM131.403,24.257c0,2.55,1.821,4.615,4.525,4.615s4.525-2.064,4.525-4.615-1.79-4.645-4.525-4.645-4.525,2.064-4.525,4.645Z"/>
      <path class="st0" d="M92.134,26.882c-.553,1.01-1.956,2.171-4.172,2.171s-3.917-1.062-4.403-3.432h12.238v-1.518c0-4.16-2.854-8.015-7.863-8.015s-8.197,3.552-8.197,8.167,3.097,8.167,8.229,8.167c4.323,0,6.569-2.617,7.189-4.139l-3.013-1.405h-.003l-.003.003ZM87.902,19.37c2.55,0,3.857,1.822,3.947,3.218h-8.199c.578-2.126,2.338-3.218,4.252-3.218Z"/>
      <path class="st0" d="M120.849,22.831l-3.218-.608c-.94-.182-1.61-.576-1.61-1.366,0-.88.972-1.486,2.49-1.486,1.886,0,3.083,1.029,3.402,2.089l3.08-1.436c-.651-1.929-2.534-3.933-6.42-3.933-3.553,0-6.285,1.942-6.285,4.887s1.974,4.16,4.341,4.615l3.128.576c1.064.214,1.61.698,1.61,1.396,0,.88-.972,1.518-2.824,1.518-2.101,0-3.424-1.213-3.937-2.372l-3.153,1.468c.742,2.111,2.955,4.242,6.938,4.242,4.373,0,6.863-2.156,6.863-5.042,0-2.185-1.518-4.009-4.403-4.555v.003l-.002.003Z"/>
      <path class="st0" d="M181.381,28.397l.002-8.622h3.743v-3.796h-3.741l.002-5.086-3.798-.002-.007,21.302h7.618v-3.796h-3.818Z"/>
      <path class="st0" d="M71.1,14.673v-3.798h-13.525v21.282h3.796v-8.391h7.822v-3.798h-7.822v-5.295h9.729Z"/>
      <path class="st0" d="M102.101,10.874h-3.796v21.284h3.796V10.874Z"/>
      <path class="st0" d="M109.456,10.874h-3.796v21.284h3.796V10.874Z"/>
      <path class="st0" d="M176.058,19.352l-1.897-3.287-5.684,3.225v-2.943h-3.797v11.222l-.007,4.601h.007v.003h2.327l1.463.002v-.002h.007v-5.016l.005-3.506,7.576-4.301Z"/>
    </g>
    <g>
      <path class="st0" d="M77.868,14.508c1.259,0,2.225-.912,2.225-2.17s-.965-2.198-2.225-2.198-2.223.912-2.223,2.198.964,2.17,2.223,2.17Z"/>
      <path class="st0" d="M74.81,16.207l-5.625,22.005,3.679.94,5.625-22.005-3.679-.94Z"/>
    </g>
    <path class="st0" d="M181.381,28.397l.002-8.622h3.743v-3.796h-3.741l.002-5.086-3.798-.002-.007,21.302h7.618v-3.796h-3.818Z"/>
    <path class="st0" d="M176.058,19.352l-1.897-3.287-5.684,3.225v-2.943h-3.797v11.222l-.007,4.601h.007v.003h2.327l1.463.002v-.002h.007v-5.016l.005-3.506,7.576-4.301Z"/>
    <path class="st0" d="M154.113,32.456c-4.797,0-8.471-3.339-8.471-8.199s3.705-8.167,8.471-8.167,8.471,3.31,8.471,8.167-3.674,8.199-8.471,8.199ZM149.498,24.257c0,2.672,1.974,4.615,4.615,4.615s4.615-1.942,4.615-4.615-1.974-4.615-4.615-4.615-4.615,1.974-4.615,4.615Z"/>
    <path class="st0" d="M127.666,39.105v-22.742h3.795v1.852c.94-1.244,2.884-2.126,5.041-2.126,4.221,0,7.803,3.036,7.803,8.167,0,4.859-3.553,8.167-7.803,8.167-2.156,0-4.13-.912-5.041-2.156v8.837h-3.795ZM131.403,24.257c0,2.55,1.821,4.615,4.525,4.615s4.525-2.064,4.525-4.615-1.79-4.645-4.525-4.645-4.525,2.064-4.525,4.645Z"/>
    <path class="st0" d="M120.849,22.831l-3.218-.608c-.94-.182-1.61-.576-1.61-1.366,0-.88.972-1.486,2.49-1.486,1.886,0,3.083,1.029,3.402,2.089l3.08-1.436c-.651-1.929-2.534-3.933-6.42-3.933-3.553,0-6.285,1.942-6.285,4.887s1.974,4.16,4.341,4.615l3.128.576c1.064.214,1.61.698,1.61,1.396,0,.88-.972,1.518-2.824,1.518-2.101,0-3.424-1.213-3.937-2.372l-3.153,1.468c.742,2.111,2.955,4.242,6.938,4.242,4.373,0,6.863-2.156,6.863-5.042,0-2.185-1.518-4.009-4.403-4.555v.003l-.002.003Z"/>
    <path class="st0" d="M109.456,10.874h-3.796v21.284h3.796V10.874Z"/>
    <path class="st0" d="M102.101,10.874h-3.796v21.284h3.796V10.874Z"/>
    <path class="st0" d="M92.134,26.882c-.553,1.01-1.956,2.171-4.172,2.171s-3.917-1.062-4.403-3.432h12.238v-1.518c0-4.16-2.854-8.015-7.863-8.015s-8.197,3.552-8.197,8.167,3.097,8.167,8.229,8.167c4.323,0,6.569-2.617,7.189-4.139l-3.013-1.405h-.003l-.003.003ZM87.902,19.37c2.55,0,3.857,1.822,3.947,3.218h-8.199c.578-2.126,2.338-3.218,4.252-3.218Z"/>
    <path class="st0" d="M71.1,14.673v-3.798h-13.525v21.282h3.796v-8.391h7.822v-3.798h-7.822v-5.295h9.729Z"/>
  </g>
  <path class="st1" d="M48.943,14.182C43.282,6.769,35.074,2.004,25.831.764,16.587-.476,7.413,1.959,0,7.619l2.173,2.847c6.653-5.079,14.885-7.264,23.18-6.151,1.179.158,2.338.382,3.475.666-.305-.016-.611-.029-.918-.036-7.873-.176-15.343,2.724-21.033,8.168l2.476,2.588c4.335-4.146,9.846-6.609,15.743-7.092-8.352,5.366-14.225,13.841-16.319,23.551h3.672c2.111-8.804,7.674-16.421,15.48-21.097l-1.515-2.529c.47-.015.943-.018,1.417-.008,5.938.133,11.525,2.245,16.013,6.004-.802.932-1.627,1.947-2.32,2.933-4.433-1.018-9.118-.375-13.143,1.861l1.614,2.906c-1.387,3.126-2.072,6.517-2.007,9.93h3.582c-.091-4.006,1.038-7.978,3.285-11.37,1.65-.283,3.341-.288,5.001-.008-.378,2.068.65,4.305,3.36,4.789-1.195-3.351,1.044-6.187,4.582-10.106l1.145-1.281Z"/>
</svg>