<?xml version="1.0" encoding="UTF-8"?>
<svg id="Lager_2" data-name="Lager 2" xmlns="http://www.w3.org/2000/svg" viewBox="0 0 795.53 180.98">
  <defs>
    <style>
      .cls-1 {
        fill: #e24585;
      }
    </style>
  </defs>
  <g id="Lager_1-2" data-name="Lager 1">
    <g>
      <g>
        <path class="cls-1" d="m53.84,38.17h-18.8c-1.7,0-3.08,1.38-3.08,3.08v96.59c0,9.4-8.88,17.35-19.4,17.35H3.25c-1.79,0-3.25,1.45-3.25,3.25v18.64c0,1.79,1.45,3.25,3.25,3.25h9.32c11.42,0,22.34-4.21,30.75-11.87,8.88-8.09,13.78-18.96,13.78-30.61V41.42c0-1.79-1.45-3.25-3.25-3.25Z"/>
        <path class="cls-1" d="m112.85,38.17c-28.15-.39-51.14,22.6-50.75,50.75s22.36,48.99,49.36,49.36c28.15.39,51.14-22.6,50.75-50.75-.37-27-22.36-48.99-49.36-49.36Zm.47,74.96c-14.67.67-26.75-11.41-26.07-26.08.59-12.79,10.95-23.15,23.73-23.73,14.67-.67,26.75,11.41,26.07,26.08-.59,12.79-10.95,23.15-23.73,23.73Z"/>
        <path class="cls-1" d="m454.42,38.17c-28.15-.39-51.14,22.6-50.75,50.75.37,27,22.36,48.99,49.36,49.36,28.15.39,51.14-22.6,50.75-50.75-.37-27-22.36-48.99-49.36-49.36Zm.47,74.96c-14.67.67-26.75-11.41-26.07-26.07.59-12.79,10.95-23.15,23.73-23.73,14.67-.67,26.75,11.41,26.07,26.07-.59,12.79-10.95,23.15-23.73,23.73Z"/>
        <path class="cls-1" d="m558.56,38.17c-28.15-.39-51.14,22.6-50.75,50.75.37,27,22.36,48.99,49.36,49.36,28.15.39,51.14-22.6,50.75-50.75-.37-27-22.36-48.99-49.36-49.36Zm.47,74.96c-14.67.67-26.75-11.41-26.07-26.07.59-12.79,10.95-23.15,23.73-23.73,14.67-.67,26.75,11.41,26.07,26.07-.59,12.79-10.95,23.15-23.73,23.73Z"/>
        <rect class="cls-1" x="167.58" y="1.64" width="25.13" height="136.65" rx="3.16" ry="3.16"/>
        <rect class="cls-1" x="204.54" y="1.64" width="25.13" height="136.65" rx="3.23" ry="3.23"/>
        <path class="cls-1" d="m44.71,0c-8.07-.1-14.53,6.3-14.39,14.21,0,7.85,6.36,14.21,14.21,14.21s14.65-6.82,14.18-15.04C58.29,5.99,52.11.09,44.71,0Z"/>
        <path class="cls-1" d="m781.5,111.79c-8.07-.1-14.53,6.3-14.39,14.21,0,7.85,6.36,14.21,14.21,14.21s14.65-6.82,14.18-15.04c-.42-7.39-6.59-13.29-14-13.38Z"/>
      </g>
      <path class="cls-1" d="m334.15,38.17h-18.67c-1.78,0-3.23,1.45-3.23,3.23v5.79s0,0,0,0v41.83c0,13.24-10.65,24.04-23.84,24.27-13.63.24-24.71-10.98-24.71-24.61v-47.28c0-1.78-1.45-3.23-3.23-3.23h-18.67c-1.78,0-3.23,1.45-3.23,3.23v47.12c0,27.26,21.87,49.75,49.12,49.91,8.91.05,17.29-2.28,24.54-6.38.01,0,.01,0,.02.01v5.78c0,5.53-3,10.03-8.93,13.39-10.96,6.21-27.73,6.18-38.18-.07l-8.08-4.96c-1.54-.9-3.52-.39-4.42,1.15l-9.44,16.11c-.9,1.54-.39,3.52,1.15,4.42l7.88,4.84c9.03,5.41,20.03,8.26,31.83,8.26.03,0,.07,0,.1,0,11.39-.02,22.59-2.82,31.54-7.89,6.45-3.66,11.61-8.35,15.32-13.95,4.21-6.36,6.35-13.52,6.35-21.3V41.4c0-1.78-1.45-3.23-3.23-3.23Z"/>
      <g>
        <path class="cls-1" d="m758.48,80.78h-.02c0-23.5-19.12-42.61-42.61-42.61h-.02c-11.72,0-22.35,4.75-30.06,12.43h-.02c-7.71-7.68-18.33-12.43-30.05-12.43-23.49,0-42.6,19.12-42.6,42.61l-.02,54.44c0,1.69,1.37,3.07,3.07,3.07h18.99c1.69,0,3.07-1.37,3.07-3.06l.02-54.44c0-9.64,7.84-17.48,17.48-17.48s17.48,7.84,17.48,17.49l.02,36.36v18.06c0,1.69,1.37,3.07,3.06,3.07h18.99c1.69,0,3.07-1.37,3.07-3.06v-7.95s.01-.06.01-.09v-46.4c.01-9.64,7.86-17.48,17.5-17.48s17.48,7.84,17.48,17.49v29.29s0,25.13,0,25.13c0,1.69,1.37,3.07,3.07,3.07h18.99c.22,0,.43-.02.63-.06,1.4-.28,2.46-1.52,2.46-3.01v-23.37s0-31.06,0-31.06Z"/>
        <polygon class="cls-1" points="691.3 38.17 691.31 38.17 691.32 38.17 691.3 38.17"/>
      </g>
      <path class="cls-1" d="m44.57,0C36.59,0,30.23,6.36,30.37,14.21c0,7.85,6.36,14.21,14.21,14.21s14.21-6.36,14.21-14.21S52.42,0,44.57,0Z"/>
      <path class="cls-1" d="m401.7,38.12h-6.58c-27.24,0-49.41,22.16-49.41,49.41v47.75c0,1.66,1.35,3.01,3.01,3.01h19.11c1.66,0,3.01-1.35,3.01-3.01v-47.75c0-13.39,10.89-24.28,24.28-24.28h9.56c1.66,0,3.01-1.35,3.01-3.01v-19.11c0-1.66-1.35-3.01-3.01-3.01h-2.97Z"/>
    </g>
  </g>
</svg>