<svg width="260" height="67" viewBox="0 0 260 67" fill="none" xmlns="http://www.w3.org/2000/svg">
<rect width="260" height="67" fill="white"/>
<path fill-rule="evenodd" clip-rule="evenodd" d="M20.7907 18.8654L16.0708 19.8789C15.0475 20.0718 14.4782 19.9461 14.3624 19.5025C14.3624 19.2517 14.1018 18.9905 13.5806 18.7206C12.4993 18.3534 11.6306 18.3534 10.9745 18.7206C10.1249 19.203 10.2894 19.5604 11.4668 19.792C12.3546 19.8505 12.6638 20.1297 12.3934 20.6318L8.3105 21.4716L0.897644 17.9677C1.24512 17.659 1.64067 17.3978 2.08486 17.1853L12.5092 15.1582L15.984 16.722C16.5249 16.2777 17.2968 15.998 18.3005 15.8822C19.5166 15.8631 20.2695 16.1139 20.5591 16.6351C20.6361 17.099 19.8641 17.3011 18.2426 17.2438C17.7984 17.1279 17.499 17.176 17.3449 17.3886L20.7907 18.8654ZM29.6225 51.6448V47.388C29.1591 46.6351 28.8018 46.4903 28.5511 46.9537C28.1648 47.8803 27.5277 48.2087 26.6399 47.9382C25.6745 47.5131 25.1921 46.934 25.1921 46.2008C25.2691 45.0042 25.6363 44.212 26.2925 43.8257C27.0262 43.3815 27.837 43.3815 28.7248 43.8257C29.2072 44.1737 29.5066 43.9322 29.6225 43.1017V37.3687L33.908 36.4415C34.7576 36.2869 35.0182 36.5863 34.6898 37.3392C33.7823 38.6909 33.6862 39.811 34.4003 40.6988C35.1722 41.3162 35.9738 41.3162 36.8036 40.6988C37.5374 40.2934 37.904 39.6662 37.904 38.8166C37.9231 38.1407 37.7111 37.4944 37.267 36.8759C36.9971 36.3164 37.3058 35.8525 38.1936 35.4865L42.537 34.5309V45.9112C42.5179 47.1847 41.9197 48.16 40.7417 48.8359L29.6225 51.6448Z" fill="#FEE000"/>
<path fill-rule="evenodd" clip-rule="evenodd" d="M12.5092 15.1583L23.1652 13.0733C24.1688 12.8996 25.2211 13.0345 26.3214 13.4787L33.2131 16.2587L28.4642 17.2722C28.58 17.6197 28.8794 17.8224 29.3619 17.8803C30.6551 18.054 31.0413 18.3726 30.5201 18.8359C29.8252 19.2407 29.0341 19.3959 28.1457 19.2992C27.2 19.1255 26.4952 18.855 26.0319 18.4884C25.8772 18.083 25.4336 17.9481 24.6999 18.083L20.7907 18.8654L17.3449 17.3886C17.4996 17.176 17.7984 17.128 18.2426 17.2438C19.8641 17.3017 20.6361 17.099 20.5591 16.6351C20.2695 16.1145 19.5167 15.8631 18.3005 15.8822C17.2969 15.998 16.5249 16.2784 15.984 16.722L12.5092 15.1583ZM16.621 54.3958V40.2066L21.6884 39.0483C22.1708 38.5467 22.2195 38.2184 21.8332 38.0637C21.5245 37.8709 21.3508 37.6485 21.312 37.3983C20.8487 35.5832 21.4857 34.4544 23.2231 34.0097C24.6327 33.8168 25.2888 34.4631 25.1921 35.9504C25.1342 36.5295 24.8736 37.0415 24.4103 37.4846C24.0819 37.7933 24.3136 38.0828 25.1053 38.3533L29.6225 37.3693V43.1023C29.5066 43.9328 29.2072 44.1744 28.7248 43.8263C27.837 43.3821 27.0262 43.3821 26.2925 43.8263C25.6363 44.2126 25.2692 45.0043 25.1921 46.2014C25.1921 46.9346 25.6745 47.5137 26.64 47.9388C27.5278 48.2093 28.1648 47.8803 28.5511 46.9543C28.8018 46.491 29.1592 46.6357 29.6225 47.3886V51.6454L18.8796 54.3674C18.1268 54.5024 17.3739 54.5116 16.621 54.3958Z" fill="#D63F44"/>
<path fill-rule="evenodd" clip-rule="evenodd" d="M29.6225 37.3693L25.1052 38.3533C24.3136 38.0829 24.0819 37.7933 24.4103 37.4846C24.8736 37.041 25.1342 36.5296 25.1921 35.9504C25.2888 34.4637 24.6321 33.8168 23.2231 34.0097C21.4857 34.4545 20.8486 35.5832 21.3119 37.3983C21.3508 37.6491 21.5245 37.8709 21.8332 38.0637C22.2194 38.219 22.1708 38.5468 21.6884 39.0483L16.621 40.2066V27.1467C16.6019 26.1622 16.1386 25.3514 15.2311 24.7143L8.3105 21.4711L12.3934 20.6313C12.6638 20.1292 12.3546 19.8494 11.4668 19.7915C10.2894 19.5604 10.1249 19.2025 10.9745 18.7201C11.6306 18.3529 12.4993 18.3529 13.5806 18.7201C14.1018 18.99 14.3624 19.2512 14.3624 19.5019C14.4782 19.9462 15.0475 20.0712 16.0708 19.8784L20.7907 18.8649L23.8312 20.2543C23.6765 20.5056 23.204 20.6307 22.4123 20.6307C21.0224 20.3602 20.2985 20.4761 20.2406 20.9782C19.9128 21.6929 20.8486 22.0595 23.0493 22.0786C23.6673 22.1747 24.3043 21.9824 24.9605 21.4994C25.0572 21.2678 25.4626 21.2099 26.1766 21.3257L29.6225 22.8599V28.1591C30.1049 28.7962 30.6168 28.806 31.1571 28.1881C31.9488 27.416 32.7306 27.233 33.5026 27.6379C34.4101 28.3913 34.4101 29.5108 33.5026 30.9975C32.8656 31.7504 32.0548 31.9334 31.0703 31.5471C30.3944 31.3543 29.912 31.634 29.6225 32.3869V37.3693Z" fill="#70BF44"/>
<path fill-rule="evenodd" clip-rule="evenodd" d="M8.3105 21.4716V26.7998C8.46513 27.2237 8.68694 27.4368 8.9765 27.4368C9.78728 26.9347 10.4145 27.2631 10.8587 28.4214C11.3799 30.3517 11.1384 31.4521 10.1348 31.7226C9.72937 31.8569 9.29502 31.4035 8.83172 30.361C8.65798 30.2063 8.48424 30.2451 8.3105 30.4768V36.0367L5.27007 34.5309C4.9226 33.9899 4.87453 33.4403 5.12529 32.8803L5.41486 32.2426C5.37663 30.2156 4.94229 29.1245 4.11182 28.971C3.1661 28.7967 2.77055 29.5693 2.9246 31.2876L3.1273 32.0116C3.30104 32.5907 3.26223 33.0633 3.01147 33.4299L0 31.9241V19.1538C0.250763 18.7096 0.55017 18.314 0.897647 17.9666L8.3105 21.4716Z" fill="#F0AA1E"/>
<path fill-rule="evenodd" clip-rule="evenodd" d="M8.3105 36.0367V41.5387C8.05974 41.8091 7.78928 41.7703 7.49972 41.4234C6.66983 40.4192 6.06174 40.2269 5.67546 40.8443C5.15425 41.3458 5.10618 42.1566 5.53068 43.2761C5.97487 44.4153 6.58296 44.9174 7.35494 44.7825C7.89584 44.6666 8.21379 44.8688 8.3105 45.3906V50.0238L1.15826 45.767C0.424502 45.0912 0.0382225 44.3001 0 43.3919V31.9247L3.01147 33.4305C3.26281 33.0639 3.30104 32.5913 3.1273 32.0122L2.9246 31.2883C2.76997 29.5699 3.1661 28.7973 4.11182 28.9716C4.94229 29.1257 5.37663 30.2162 5.41486 32.2433L5.12529 32.8809C4.87453 33.441 4.9226 33.9906 5.27007 34.5315L8.3105 36.0367ZM42.537 34.5309L38.1936 35.4865C37.3058 35.8531 36.9971 36.317 37.267 36.8759C37.7111 37.4939 37.9231 38.1408 37.904 38.8166C37.904 39.6663 37.5374 40.2935 36.8036 40.6989C35.9738 41.3163 35.1722 41.3163 34.4003 40.6989C33.6862 39.811 33.7823 38.691 34.6898 37.3392C35.0176 36.5863 34.7576 36.2875 33.908 36.4415L29.6225 37.3688V32.3875C29.912 31.6346 30.3944 31.3549 31.0703 31.5477C32.0548 31.934 32.8656 31.751 33.5026 30.9981C34.4101 29.512 34.4101 28.3919 33.5026 27.6384C32.7306 27.2336 31.9488 27.4166 31.1571 28.1886C30.6168 28.8066 30.1049 28.7967 29.6225 28.1597V22.8604L41.7842 20.4859C42.1507 21.1033 42.4015 21.8081 42.537 22.5998V34.5309Z" fill="#4C8ECC"/>
<path fill-rule="evenodd" clip-rule="evenodd" d="M16.621 40.2066L13.8122 38.7587C13.214 38.8363 13.0501 39.1641 13.32 39.7432C13.9373 40.8633 14.1116 41.7801 13.8412 42.4942C13.4549 43.0155 12.8955 43.199 12.1617 43.0444C11.37 42.6772 10.9745 42.1658 10.9745 41.5097C10.9745 40.5251 11.1673 39.6564 11.5536 38.9035C11.9978 38.5363 11.805 38.0249 10.9745 37.3693L8.3105 36.0367V30.4768C8.48424 30.2452 8.65798 30.2064 8.83172 30.361C9.29502 31.4035 9.72937 31.8569 10.1348 31.7226C11.1384 31.4521 11.3799 30.3517 10.8587 28.4214C10.4145 27.2631 9.78728 26.9347 8.9765 27.4369C8.68694 27.4369 8.46513 27.2243 8.3105 26.7998V21.4716L15.2311 24.7148C16.1386 25.3525 16.6019 26.1627 16.621 27.1473V40.2066Z" fill="#359A46"/>
<path fill-rule="evenodd" clip-rule="evenodd" d="M16.621 40.2066V54.3958C16.0419 54.3182 15.4917 54.1734 14.9705 53.9614L8.3105 50.0232V45.39C8.21378 44.8687 7.89584 44.666 7.35493 44.7819C6.58295 44.9168 5.97487 44.4147 5.53068 43.2755C5.10617 42.1554 5.15424 41.3452 5.67546 40.8436C6.06174 40.2262 6.66982 40.4185 7.49972 41.4228C7.78928 41.7703 8.05973 41.8085 8.3105 41.538V36.0361L10.9745 37.3687C11.805 38.0249 11.9978 38.5363 11.5536 38.9029C11.1673 39.6558 10.9745 40.5245 10.9745 41.5091C10.9745 42.1658 11.3706 42.6772 12.1617 43.0438C12.8955 43.1984 13.4549 43.0149 13.8412 42.4936C14.1116 41.7795 13.9379 40.8627 13.32 39.7427C13.0495 39.1635 13.2134 38.8357 13.8122 38.7581L16.621 40.2066Z" fill="#CA3927"/>
<path fill-rule="evenodd" clip-rule="evenodd" d="M20.7907 18.8654L24.6999 18.083C25.4336 17.9486 25.8772 18.083 26.0318 18.4884C26.4952 18.8556 27.2 19.126 28.1457 19.2992C29.0341 19.3959 29.8251 19.2407 30.5201 18.8359C31.0413 18.372 30.655 18.0534 29.3618 17.8803C28.8794 17.8223 28.58 17.6196 28.4642 17.2722L33.2131 16.2586L41.0313 19.9073C41.3979 20.081 41.6492 20.2739 41.7842 20.4864L29.6225 22.861L26.1766 21.3268C25.4626 21.211 25.0572 21.2683 24.9605 21.5005C24.3043 21.9835 23.6673 22.1758 23.0493 22.0797C20.8486 22.0606 19.9122 21.694 20.2406 20.9793C20.2985 20.4778 21.0224 20.3619 22.4123 20.6318C23.204 20.6318 23.6771 20.5061 23.8312 20.2554L20.7907 18.8654Z" fill="#A5BCE2"/>
<path fill-rule="evenodd" clip-rule="evenodd" d="M142.437 32.9961L148.72 24.8017H155.641L147.909 33.5469C147.871 33.5666 147.851 33.5857 147.851 33.6054C147.696 33.7791 147.619 33.943 147.619 34.0977C147.619 34.1938 147.649 34.3195 147.706 34.4741C147.706 34.5123 147.716 34.532 147.735 34.532L156.162 47.5919H148.749L143.942 39.0784C143.846 38.9243 143.71 38.827 143.537 38.7888C143.459 38.7506 143.363 38.7309 143.247 38.7309C143.15 38.7309 143.083 38.75 143.044 38.7888C142.948 38.8079 142.851 38.8566 142.755 38.9336L141.365 40.4973C141.172 40.6519 141.075 40.8257 141.075 41.0185V47.5919H135.139V19.7347H141.075V32.505C141.075 32.6788 141.123 32.8432 141.22 32.9973C141.336 33.094 141.462 33.1803 141.596 33.2579C141.635 33.2579 141.664 33.2579 141.683 33.2579H141.741C141.819 33.2579 141.866 33.2579 141.886 33.2579C141.924 33.2579 141.953 33.2579 141.972 33.2579C141.991 33.2579 142.011 33.2579 142.031 33.2579C142.166 33.2197 142.272 33.1519 142.349 33.0552C142.388 33.0546 142.418 33.0343 142.437 32.9961ZM160.969 25.1197C161.297 25.0038 161.655 24.8979 162.04 24.8011C163.044 24.5892 164.27 24.4826 165.718 24.4826C167.108 24.4826 168.353 24.5892 169.453 24.8011C170.998 25.1289 172.263 25.6988 173.246 26.5096C174.849 27.8023 175.65 29.8015 175.65 32.5038V39.0483C175.65 39.145 175.65 39.2707 175.65 39.4247V39.4826C175.65 39.9071 175.65 40.6218 175.65 41.6255C175.631 44.5595 173.729 46.4712 169.945 47.3591C168.671 47.6295 167.301 47.7639 165.833 47.7639L163.748 47.706C161.567 47.706 159.81 47.0689 158.478 45.7948C157.242 44.5015 156.625 42.7734 156.625 40.6114C156.625 38.816 157.204 37.349 158.362 36.2098V36.2388C159.732 34.9647 161.654 34.3276 164.124 34.3276H169.047C169.24 34.3276 169.404 34.25 169.539 34.0959H169.568C169.723 33.9413 169.8 33.7681 169.8 33.5747V32.9666C169.8 31.5575 169.404 30.5828 168.612 30.0419L168.583 30.0129C167.946 29.472 166.885 29.2021 165.398 29.2021C164.375 29.2021 163.536 29.337 162.879 29.6075C162.454 29.8201 162 30.1287 161.517 30.5342L157.985 26.973C158.932 26.1239 159.926 25.5054 160.969 25.1197ZM163.083 38.5566C162.485 39.0199 162.185 39.6564 162.185 40.4678C162.185 41.3944 162.465 42.1282 163.025 42.6685C163.584 43.2286 164.376 43.5083 165.399 43.5083C166.346 43.5083 166.992 43.4985 167.34 43.4793C168.053 43.3444 168.652 43.0548 169.135 42.6106L169.164 42.5521C169.473 42.2046 169.666 41.6643 169.743 40.9305C169.782 40.7759 169.802 40.1967 169.802 39.1931V38.4691C169.802 38.2763 169.724 38.1216 169.57 38.0058L169.541 37.9768C169.406 37.8419 169.242 37.7735 169.048 37.7735H165.255C164.367 37.7735 163.662 38.0052 163.142 38.4685C163.102 38.4888 163.083 38.5172 163.083 38.5566ZM184.221 32.4465C184.511 32.9481 185.148 33.2567 186.132 33.3732L189.867 33.7206C192.087 33.972 193.815 34.715 195.051 35.951C196.035 37.0705 196.527 38.567 196.527 40.4394C196.527 42.8718 195.601 44.7349 193.748 46.0276C193.729 46.0658 193.709 46.0861 193.69 46.0861C191.914 47.2826 189.606 47.8815 186.769 47.8815C184.549 47.8815 182.831 47.7367 181.615 47.4471C179.993 47.0029 178.555 46.2216 177.3 45.1016L181.065 41.3081C181.895 42.0222 182.899 42.5336 184.076 42.8423C184.81 43.0166 185.756 43.1029 186.914 43.1029C187.744 43.1029 188.478 42.9871 189.115 42.7554H189.144C190.283 42.3112 190.833 41.6452 190.795 40.7573V40.7284C190.833 39.3963 190.022 38.6429 188.362 38.4697L184.627 38.1222C180.399 37.7168 178.276 35.622 178.257 31.8378C178.257 29.5403 179.154 27.7166 180.949 26.3654C181.992 25.6119 183.207 25.0913 184.598 24.8017C185.408 24.6088 186.268 24.5121 187.175 24.5121C188.585 24.5121 189.848 24.6088 190.968 24.8017C191.47 24.8793 191.934 24.9847 192.358 25.1202C192.377 25.1202 192.396 25.1202 192.416 25.1202C193.671 25.506 194.771 26.0851 195.717 26.8577L192.184 30.3326C191.045 29.5409 189.336 29.1453 187.059 29.1453C186.035 29.1453 185.254 29.3573 184.713 29.7824C184.192 30.2069 183.931 30.7096 183.931 31.2888C183.931 31.7706 184.028 32.1569 184.221 32.4465ZM204.577 29.7818C204.017 30.2064 203.738 30.7091 203.738 31.2882C203.738 31.7515 203.844 32.1083 204.056 32.3596H204.115V32.4465C204.385 32.9481 205.012 33.2567 205.997 33.3732L209.732 33.7206C211.99 33.972 213.699 34.715 214.857 35.951C215.881 37.0705 216.392 38.567 216.392 40.4394C216.392 42.8718 215.456 44.7349 213.583 46.0276C213.545 46.0658 213.515 46.0954 213.496 46.1145C211.682 47.2919 209.394 47.8809 206.633 47.8809C204.413 47.8809 202.666 47.7361 201.392 47.4465C199.828 47.0023 198.4 46.221 197.107 45.101L200.871 41.3075C201.74 42.0216 202.753 42.533 203.911 42.8417C204.702 43.016 205.659 43.1023 206.778 43.1023C207.609 43.1023 208.342 42.9865 208.979 42.7548H209.037C210.157 42.3106 210.688 41.6446 210.63 40.7568V40.7278C210.688 39.3958 209.887 38.6423 208.226 38.4691L204.491 38.1216C200.263 37.7162 198.15 35.6214 198.15 31.8372C198.15 29.5398 199.048 27.716 200.843 26.3648C201.885 25.6114 203.091 25.0907 204.462 24.8011C205.273 24.6083 206.132 24.5116 207.039 24.5116C208.467 24.5116 209.712 24.6083 210.775 24.8011C211.295 24.8787 211.759 24.9841 212.164 25.1197C212.203 25.1197 212.242 25.1197 212.28 25.1197C213.515 25.5054 214.596 26.0845 215.523 26.8571L211.962 30.332C210.9 29.5403 209.201 29.1448 206.865 29.1448C205.899 29.1453 205.137 29.3573 204.577 29.7818ZM230.869 24.2799C232.877 24.7044 234.537 25.6606 235.85 27.1467C237.607 29.1355 238.485 31.693 238.485 34.8205V37.3398H224.702C224.528 37.3398 224.374 37.4075 224.239 37.543C224.22 37.543 224.209 37.5529 224.209 37.572C224.055 37.7069 223.978 37.8714 223.978 38.0643C223.978 39.3193 224.432 40.3809 225.339 41.2496C226.285 42.1566 227.501 42.6112 228.988 42.6112C230.281 42.6112 231.372 42.4183 232.26 42.032C232.801 41.7807 233.38 41.3857 233.997 40.8448L237.385 44.2328C236.285 45.2365 235.213 45.9801 234.171 46.4626C232.782 47.0608 231.053 47.3608 228.988 47.3608C221.787 47.3608 218.187 43.4608 218.187 35.662C218.187 31.9751 219.153 29.0984 221.083 27.0326C222.338 25.6044 223.912 24.687 225.802 24.2816C226.575 24.1079 227.414 24.021 228.322 24.021C229.229 24.0193 230.078 24.1062 230.869 24.2799ZM224.441 30.9691C224.133 31.5291 223.978 32.2432 223.978 33.112C223.978 33.3633 224.056 33.5562 224.209 33.6911C224.364 33.8261 224.528 33.8944 224.702 33.8944H231.941C232.134 33.8944 232.308 33.8266 232.462 33.6911C232.578 33.5562 232.636 33.3633 232.636 33.112C232.636 32.2629 232.472 31.5482 232.143 30.9691C231.526 29.3869 230.251 28.5946 228.321 28.5946C226.391 28.5946 225.098 29.3869 224.441 30.9691ZM241.149 29.4923C241.477 28.3925 242.076 27.4073 242.945 26.5386C243.891 25.5731 245.107 24.994 246.593 24.8011C246.941 24.7235 247.317 24.6853 247.722 24.6853H252.993C253.398 24.6853 253.794 24.7235 254.18 24.8011C255.589 24.994 256.786 25.5731 257.77 26.5386C258.639 27.4073 259.257 28.3919 259.624 29.4923C259.875 30.4386 260 31.5865 260 32.9382V47.5907H254.093V33.7201C254.093 32.2722 253.649 31.1724 252.761 30.4195C252.066 29.8212 251.264 29.5212 250.358 29.5212C249.489 29.5212 248.716 29.8212 248.041 30.4195C247.114 31.1724 246.651 32.2722 246.651 33.7201V47.5907H240.745V32.9382C240.744 31.5865 240.879 30.4386 241.149 29.4923ZM56.9573 19.7341V40.6415C56.9573 42.1091 57.6911 42.8423 59.158 42.8423H67.5844V47.5913H57.7971C55.5576 47.5913 53.8399 46.9155 52.6428 45.5643C51.5425 44.3284 50.9923 42.8521 50.9923 41.1344V19.7347H56.9573V19.7341ZM74.9393 31.5193C74.6109 32.0602 74.447 32.7645 74.447 33.6332C74.447 33.884 74.5438 34.0676 74.7366 34.1834C74.8912 34.3177 75.0551 34.3861 75.2289 34.3861H82.468C82.6226 34.3861 82.7865 34.3183 82.9602 34.1834C83.0761 34.0676 83.134 33.8834 83.134 33.6332C83.134 32.7836 82.9892 32.0788 82.6996 31.5193L82.6707 31.4903C82.0336 29.9266 80.7497 29.1448 78.8195 29.1448C76.9274 29.1448 75.6441 29.9266 74.9683 31.4903C74.9491 31.4903 74.9393 31.5002 74.9393 31.5193ZM74.447 38.5849C74.447 39.8591 74.8912 40.9015 75.779 41.7124C76.7444 42.639 77.9797 43.1017 79.4855 43.1017C80.7787 43.1017 81.879 42.9089 82.7865 42.5226C83.3274 42.2915 83.9065 41.9052 84.5239 41.3643L87.8828 44.7813C86.8213 45.7658 85.7592 46.4898 84.6976 46.9531C83.288 47.5705 81.5506 47.8797 79.4855 47.8797C72.2846 47.8797 68.6847 43.9902 68.6847 36.2104C68.6847 32.523 69.6501 29.6272 71.5804 27.5231C72.8156 26.1135 74.3891 25.2065 76.3002 24.8011C77.0722 24.6083 77.912 24.5116 78.8195 24.5116C79.727 24.5116 80.5765 24.6083 81.3676 24.8011C83.3749 25.2257 85.055 26.1818 86.4061 27.6679C88.1052 29.6567 88.9542 32.2044 88.9542 35.3122V37.832H75.2289C75.036 37.832 74.8715 37.9096 74.7366 38.0631C74.5432 38.1992 74.447 38.3724 74.447 38.5849ZM97.5832 19.7341V32.5044C97.5832 32.6782 97.6412 32.8427 97.757 32.9967C97.8537 33.0934 97.9695 33.1797 98.1045 33.2573H98.2492C98.3263 33.2573 98.3842 33.2573 98.423 33.2573C98.4421 33.2573 98.4618 33.2573 98.4809 33.2573C98.5 33.2573 98.5197 33.2573 98.5388 33.2573C98.6546 33.2191 98.7606 33.171 98.8573 33.1125L98.8863 33.0546C98.9245 33.0546 98.9633 33.0349 99.0021 32.9961L105.257 24.8017H112.148L104.475 33.5469C104.417 33.5666 104.388 33.5857 104.388 33.6054C104.195 33.7791 104.098 33.943 104.098 34.0977C104.098 34.1938 104.127 34.3195 104.185 34.4741C104.185 34.4932 104.195 34.5123 104.214 34.532L112.699 47.5919H105.286L100.45 39.0784L100.421 39.0494C100.305 38.8757 100.179 38.7888 100.045 38.7888C99.9675 38.7506 99.8708 38.7309 99.755 38.7309C99.5812 38.7309 99.4753 38.7598 99.4365 38.8178C99.3594 38.856 99.3015 38.8948 99.2627 38.933L97.8439 40.4967H97.8728C97.68 40.6513 97.5832 40.8251 97.5832 41.0179V47.5913H91.6472V19.7341H97.5832ZM118.432 31.4903C118.084 32.0504 117.911 32.7645 117.911 33.6332C117.911 33.884 117.998 34.0676 118.171 34.1834C118.306 34.3177 118.471 34.3861 118.664 34.3861H125.903C126.096 34.3861 126.269 34.3183 126.424 34.1834C126.579 34.0676 126.656 33.8834 126.656 33.6332C126.656 32.7645 126.492 32.0504 126.163 31.4903V31.5193C125.507 29.9365 124.213 29.1448 122.283 29.1448C120.372 29.1448 119.088 29.9359 118.432 31.5193V31.4903ZM119.764 24.8017C120.556 24.6088 121.395 24.5121 122.283 24.5121C123.21 24.5121 124.078 24.6088 124.889 24.8017C126.877 25.2262 128.528 26.1824 129.841 27.6685C131.578 29.6573 132.447 32.205 132.447 35.3127V37.8326H118.664C118.471 37.8326 118.306 37.9102 118.171 38.0637C117.998 38.1992 117.911 38.3724 117.911 38.5849C117.911 39.8591 118.355 40.9015 119.243 41.7124C120.208 42.639 121.443 43.1017 122.949 43.1017C124.242 43.1017 125.343 42.9089 126.25 42.5226C126.79 42.2915 127.36 41.9052 127.959 41.3643L131.375 44.7813C130.294 45.7658 129.223 46.4898 128.161 46.9531C126.752 47.5705 125.015 47.8797 122.949 47.8797C115.768 47.8797 112.177 43.9902 112.177 36.2104C112.177 32.523 113.143 29.6272 115.073 27.5231C116.347 26.1141 117.911 25.2071 119.764 24.8017Z" fill="#686969"/>
</svg>
