<svg xmlns="http://www.w3.org/2000/svg" fill="none" viewBox="0 0 548 168" height="168" width="548">
<path fill="black" d="M299.688 65.3301V126.32H313.827V77.2301H331.978V65.3301H299.688Z"></path>
<path fill="black" d="M84.6562 103.131H2.65625V126.321H84.6562V103.131Z"></path>
<path fill="black" d="M2.65625 64.9203V97.7203L27.2563 73.1203L43.6563 89.5203L60.0562 73.1203L84.6562 97.7203V64.9203L60.0562 40.3203L43.6563 56.7203L27.2563 40.3203L2.65625 64.9203Z"></path>
<path fill="black" d="M226.926 126.321H212.336V42.0008L190.156 126.301H162.426L140.246 42.0008V126.301H125.656V40.3008H154.506L176.346 124.721L198.076 40.3008H226.926V126.321Z"></path>
<path fill="black" d="M242.094 55.9403V40.3203H256.924V55.9403H242.094ZM242.434 126.32V65.3203H256.584V126.32H242.434Z"></path>
<path fill="black" d="M271.062 126.32V40.3203H285.212V126.32H271.062Z"></path>
<path fill="black" d="M393.608 87.4002V126.32H379.608V114.21C375.758 122.21 370.558 127.68 358.898 127.68C347.238 127.68 338.078 119.42 338.078 107.88C338.078 93.7302 351.768 90.6802 363.318 89.5402L379.498 87.8502V86.8502C379.498 79.7202 375.418 73.9502 366.938 73.9502C359.348 73.9502 355.168 78.4802 354.378 83.5702H340.088C341.558 71.5702 351.968 63.9902 366.908 63.9902C385.688 64.0002 393.608 75.0002 393.608 87.4002ZM379.468 100.4V96.7902L368.468 97.9202C360.778 98.8202 352.398 99.9202 352.398 107.92C352.398 114.82 357.828 118.78 364.278 118.78C374.378 118.74 379.468 110.59 379.468 100.41V100.4Z"></path>
<path fill="black" d="M466.838 95.7705C466.838 114.331 456.208 127.681 441.268 127.681C431.988 127.681 423.838 121.681 420.328 113.311V126.311H406.328V40.3105H420.328V79.7005C423.158 71.5505 430.178 64.0005 441.268 64.0005C456.088 64.0005 466.838 77.2105 466.838 95.7705ZM452.468 95.7705C452.468 82.4205 446.698 73.9305 436.178 73.9305C425.658 73.9305 419.878 82.4205 419.878 95.7705C419.878 109.121 425.768 117.771 436.178 117.771C446.588 117.771 452.468 109.231 452.468 95.7705Z"></path>
</svg>
