<svg width="164" height="41" viewBox="0 0 164 41" fill="none" xmlns="http://www.w3.org/2000/svg">
  <path d="M53.7284 27.5986C53.7284 24.606 51.4083 22.1709 48.5536 22.1709H47.5735C44.7188 22.1709 42.3987 24.606 42.3987 27.5986V39.5929H44.544V27.5986C44.544 25.7859 45.9045 24.3119 47.5735 24.3119H48.5536C50.2226 24.3119 51.5831 25.7859 51.5831 27.5986V39.5929H53.7284V27.5986Z" fill="#6B6E71" stroke="#6B6E71" stroke-width="0.999995"/>
  <path d="M62.9608 27.5986C62.9608 24.606 60.6407 22.1709 57.786 22.1709H56.8059C53.9512 22.1709 51.6311 24.606 51.6311 27.5986V39.5929H53.7764V27.5986C53.7764 25.7859 55.1369 24.3119 56.8059 24.3119H57.786C59.455 24.3119 60.8155 25.7859 60.8155 27.5986V39.5929H62.9608V27.5986Z" fill="#6B6E71" stroke="#6B6E71" stroke-width="0.999995"/>
  <path d="M144.112 22.1709C141.257 22.1709 138.937 24.606 138.937 27.5986V39.4561V39.5792L141.083 39.5348V39.4561V27.5986C141.083 25.7859 142.443 24.3119 144.112 24.3119H145.092C146.761 24.3119 148.122 25.7859 148.122 27.5986V39.4561H150.267V27.5986C150.267 24.606 147.947 22.1709 145.092 22.1709H144.112Z" fill="#6B6E71" stroke="#6B6E71" stroke-width="0.999995"/>
  <path d="M153.348 22.1709C150.497 22.1709 148.173 24.606 148.173 27.5986V39.4561V39.569L150.318 39.545V39.4561V27.5986C150.318 25.7859 151.676 24.3119 153.348 24.3119H154.331C156 24.3119 157.361 25.7859 157.361 27.5986V39.4561H159.506V27.5986C159.506 24.606 157.186 22.1709 154.331 22.1709H153.348Z" fill="#6B6E71" stroke="#6B6E71" stroke-width="0.999995"/>
  <path d="M76.6858 22.1127V34.131C76.6858 36.9902 74.7872 37.4177 73.6563 37.4177H72.0045C71.3876 37.4177 68.3033 37.2604 68.3033 34.131V22.0614L66.158 22.017V22.2701V34.1276C66.158 37.8589 69.1874 39.5553 72.0045 39.5553H73.6563C76.7989 39.5553 78.8311 37.4245 78.8311 34.1276V22.1093H76.6858V22.1127Z" fill="#6B6E71" stroke="#6B6E71" stroke-width="0.999995"/>
  <path d="M82.5974 15.2109V34.2951C82.5974 37.2159 84.8627 39.5928 87.6488 39.5928V37.4519C86.0484 37.4519 84.7461 36.0359 84.7461 34.2985V15.2144H82.5974V15.2109Z" fill="#6B6E71" stroke="#6B6E71" stroke-width="0.999995"/>
  <path d="M89.6914 17.4683V34.2917C89.6914 37.2125 91.9567 39.5895 94.7428 39.5895H96.4221V37.4485H94.7428C93.1424 37.4485 91.8402 36.0326 91.8402 34.2952V17.4717H89.6914V17.4683Z" fill="#6B6E71" stroke="#6B6E71" stroke-width="0.999995"/>
  <path d="M96.3123 22.1024H90.6577V24.2434H96.3123V22.1024Z" fill="#6B6E71" stroke="#6B6E71" stroke-width="0.999995"/>
  <path d="M101.679 22.0546H99.5337V39.5928H101.679V22.0546Z" fill="#6B6E71" stroke="#6B6E71" stroke-width="1.005"/>
  <path d="M101.679 17.4854H99.5337V19.7153H101.679V17.4854Z" fill="#6B6E71" stroke="#6B6E71" stroke-width="0.999995"/>
  <path d="M127.577 22.0785C124.376 22.0785 121.771 24.8146 121.771 28.1765V33.3648C121.771 36.7268 124.376 39.4629 127.577 39.4629H130.092C133.293 39.4629 135.898 36.7268 135.898 33.3648V28.1765C135.898 24.8146 133.293 22.0785 130.092 22.0785H127.577ZM123.917 33.3648V28.1765C123.917 25.9945 125.558 24.2195 127.573 24.2195H130.089C132.107 24.2195 133.749 25.9945 133.749 28.1765V33.3648C133.749 35.5469 132.107 37.3219 130.089 37.3219H127.573C125.558 37.3219 123.917 35.5469 123.917 33.3648Z" fill="#6B6E71" stroke="#6B6E71" stroke-width="0.999995"/>
  <path d="M113.475 22.106H110.952C107.741 22.106 105.13 24.8489 105.13 28.2245V33.4265C105.13 36.7987 107.741 39.5451 110.952 39.5451H111.535V37.3972H110.952C108.93 37.3972 107.282 35.6154 107.282 33.4265V28.2245C107.282 26.0356 108.927 24.2538 110.952 24.2538H113.475C115.154 24.2538 116.569 25.4816 117.004 27.1472H119.201C118.718 24.2846 116.336 22.106 113.475 22.106Z" fill="#6B6E71" stroke="#6B6E71" stroke-width="1.0031"/>
  <path d="M113.475 37.3937H110.952C108.93 37.3937 107.282 35.6118 107.282 33.423V28.221C107.282 26.0321 108.927 24.2502 110.952 24.2502H111.199V22.1024H110.952C107.741 22.1024 105.13 24.8453 105.13 28.2176V33.4195C105.13 36.7918 107.741 39.5381 110.952 39.5381H113.475C116.37 39.5381 118.769 37.3048 119.215 34.3943H117.028C116.628 36.1146 115.188 37.3937 113.475 37.3937Z" fill="#6B6E71" stroke="#6B6E71" stroke-width="1.0031"/>
  <path d="M37.978 15.081C37.978 15.081 38.331 13.5557 37.1966 12.1979C37.1966 12.1979 30.7299 4.44796 28.1185 2.40274C28.1185 2.40274 21.9738 -3.38064 17.0663 2.99784C17.0663 2.99784 10.2329 11.0522 11.9464 24.9036C11.9464 24.9036 11.3946 18.5559 15.4933 8.73335C15.4933 8.73335 19.8354 0.189939 26.9876 4.58477C26.9876 4.58819 33.9855 9.46867 37.978 15.081Z" fill="url(#paint0_radial_94_1757)"/>
  <path d="M37.978 15.0058C37.978 15.0058 33.2864 8.7368 26.8642 4.40354C26.8642 4.40354 21.6071 0.43622 17.2651 5.99046C17.2651 5.99046 11.4563 12.0304 11.9463 24.907C11.9463 24.907 13.0464 15.8438 18.6119 9.95778C18.6119 9.95778 23.1356 3.7503 32.7038 11.3771C32.7038 11.3737 32.978 11.6507 37.978 15.0058Z" fill="url(#paint1_linear_94_1757)"/>
  <path d="M2.77227 26.463L5.09578 27.2565C10.4762 29.2094 18.6702 32.3217 18.6702 32.3217C29.3694 36.0427 31.7546 32.0788 31.7546 32.0788C35.3187 27.4822 28.211 18.1248 26.71 16.2472C27.4674 17.5503 32.6387 26.9213 25.7024 28.9084C25.7024 28.9084 21.8505 30.0678 10.9046 27.5643C10.9046 27.5643 3.62902 26.3433 5.76748 24.7564L7.6729 23.2892L2.83395 25.3652C1.21297 26.0047 2.77227 26.463 2.77227 26.463Z" fill="url(#paint2_radial_94_1757)"/>
  <path d="M34.873 27.3762C34.873 27.3762 31.6928 20.1153 26.6173 16.0864C26.6173 16.0864 26.6516 16.1446 26.7099 16.2403C28.2109 18.118 35.3185 27.4754 31.7544 32.072C31.7544 32.072 29.3692 36.0393 18.6701 32.3148C18.6701 32.3148 10.4761 29.2025 5.09566 27.2496L2.77215 26.4562C2.77215 26.4562 1.21285 25.9979 2.83383 25.3583L7.67278 23.2823L7.90925 23.101C7.90925 23.101 4.05728 24.8692 1.06206 25.543C1.06206 25.543 -0.956451 25.9089 0.571999 26.5793C0.571999 26.5793 6.74749 29.8728 13.718 34.2677C13.718 34.2677 23.2554 41.1011 31.5111 38.9669C31.5111 38.9703 39.2151 36.9559 34.873 27.3762Z" fill="url(#paint3_linear_94_1757)"/>
  <path d="M161.58 19.729L162.011 19.8659C161.946 20.1087 161.833 20.2865 161.679 20.4062C161.525 20.5259 161.329 20.5841 161.089 20.5841C160.795 20.5841 160.555 20.4849 160.363 20.2831C160.174 20.0813 160.078 19.8077 160.078 19.4589C160.078 19.0895 160.174 18.8056 160.363 18.6004C160.555 18.3952 160.805 18.296 161.113 18.296C161.384 18.296 161.604 18.3747 161.775 18.5354C161.874 18.6312 161.95 18.768 162.001 18.9424L161.556 19.0484C161.528 18.9322 161.477 18.8432 161.391 18.7748C161.309 18.7099 161.206 18.6757 161.089 18.6757C160.925 18.6757 160.791 18.7338 160.692 18.8535C160.589 18.9698 160.538 19.1613 160.538 19.4247C160.538 19.7051 160.589 19.9035 160.689 20.0232C160.788 20.1429 160.922 20.201 161.083 20.201C161.199 20.201 161.302 20.1634 161.388 20.0882C161.48 20.0129 161.542 19.8932 161.58 19.729Z" fill="#6B6E71"/>
  <path d="M158.834 19.4417C158.834 20.6901 159.852 21.7024 161.1 21.7024C162.351 21.7024 163.365 20.6866 163.365 19.4417C163.365 18.1934 162.347 17.181 161.1 17.181C159.852 17.181 158.834 18.1934 158.834 19.4417ZM159.218 19.4417C159.218 18.4054 160.065 17.5607 161.103 17.5607C162.142 17.5607 162.988 18.4054 162.988 19.4417C162.988 20.478 162.142 21.3228 161.103 21.3228C160.065 21.3228 159.218 20.478 159.218 19.4417Z" fill="#6B6E71"/>
  <defs>
    <radialGradient id="paint0_radial_94_1757" cx="0" cy="0" r="1" gradientUnits="userSpaceOnUse" gradientTransform="translate(15.3683 6.23457) scale(8.3194 8.30261)">
      <stop stop-color="white"/>
      <stop offset="0.205" stop-color="#FCFCFC"/>
      <stop offset="0.3684" stop-color="#F2F2F2"/>
      <stop offset="0.5175" stop-color="#E1E2E2"/>
      <stop offset="0.6581" stop-color="#C9CACC"/>
      <stop offset="0.7927" stop-color="#ABACAE"/>
      <stop offset="0.921" stop-color="#86888B"/>
      <stop offset="1" stop-color="#6B6E71"/>
    </radialGradient>
    <linearGradient id="paint1_linear_94_1757" x1="28.5754" y1="13.9692" x2="15.6129" y2="13.9692" gradientUnits="userSpaceOnUse">
      <stop stop-color="#D4D4D4"/>
      <stop offset="1" stop-color="#6B6E71"/>
    </linearGradient>
    <radialGradient id="paint2_radial_94_1757" cx="0" cy="0" r="1" gradientUnits="userSpaceOnUse" gradientTransform="translate(16.1019 29.9396) scale(12.9628 12.9366)">
      <stop stop-color="#FBFAE9"/>
      <stop offset="1" stop-color="#B4D334"/>
    </radialGradient>
    <linearGradient id="paint3_linear_94_1757" x1="8.27532" y1="27.7362" x2="23.9282" y2="27.7362" gradientUnits="userSpaceOnUse">
      <stop stop-color="#50883E"/>
      <stop offset="1" stop-color="#CBDE72"/>
    </linearGradient>
  </defs>
</svg>
