<svg xmlns="http://www.w3.org/2000/svg" style="isolation:isolate" width="173.758" height="40" viewBox="0 0 173.758 40"><defs><clipPath id="a"><path d="M0 0h173.758v40H0z"/></clipPath></defs><g fill-rule="evenodd" fill="#72BF44" clip-path="url(#a)"><path d="M51.689 29.461c-5.249 3.805-12.789 2.483-16.84-2.951-2.522-3.384-3.092-7.565-1.904-11.158.143-.436 3.761-10 3.761-10 .125-.333.43-.393.676-.132l2.788 2.955c2.82-.917 5.913-.706 8.653.517l3.439-2.587c.288-.217.557-.104.601.249l.739 6.05c.086.108.173.215.256.328 4.052 5.435 3.08 12.925-2.169 16.729zm-24.282-8.25c-.084.287-.177.574-.287.858l-2.954 7.625c-2.126 5.482-8.413 8.254-13.973 6.159-5.562-2.096-8.373-8.296-6.247-13.778l2.953-7.626c.199-.513.434-1.003.702-1.467-.818-4.038-.973-8.208-1.003-9.218-.003-.128.073-.353.348-.362.915-.029 3.861.064 6.396 2.387.671.614 1.207 1.37 1.591 2.008a10.891 10.891 0 014.994.187c.081-.159.165-.315.251-.464 1.45-2.462 2.963-3.567 3.512-3.948a.386.386 0 01.41-.004c.665.464 3.359 2.624 4.543 7.697.898 3.85-.049 6.808-1.236 9.946zm29.239-10.185l-.634-5.186c-.234-1.925-1.526-3.385-3.006-3.396l-.04-.001c-.793 0-1.524.179-2.711 1.067l-1.989 1.496a15.555 15.555 0 00-6.994-.455l-1.467-1.554c-.794-.843-1.884-1.372-2.843-1.381l-.03-.001c-1.56 0-2.856 1.307-3.329 2.599a667.192 667.192 0 01-1.994 5.316c-1.392-4.873-4.088-7.483-5.633-8.635C25.354.43 24.675 0 23.928 0c-.685 0-1.387.456-1.952.822l-.096.063c-.886.574-2.219 1.644-3.579 3.499a13.887 13.887 0 00-1.802-.045 10.29 10.29 0 00-.904-.942C12.379.45 8.569.132 7.08.132c-.105 0-.222.007-.317.012l-.064.003C5.495.21 4.699.25 4.012 1c-.639.695-.606 1.655-.569 2.669v.038l.015.286.017.282c.075 1.437.25 4.788.83 8.132-.122.263-.235.529-.337.794l-2.954 7.625c-1.402 3.619-1.349 7.433.151 10.741 1.535 3.385 4.546 6.195 8.057 7.517A14.18 14.18 0 0014.24 40c5.942 0 11.303-3.534 13.341-8.793l2.422-6.249a14.99 14.99 0 001.994 3.632c3.003 4.029 7.95 6.533 12.908 6.533 2.985 0 6.009-1.049 8.743-3.032 3.168-2.295 5.212-5.88 5.76-10.096.498-3.842-.483-7.734-2.762-10.969z"/><path d="M10.23 19.439a1.86 1.86 0 11-3.716.192 1.86 1.86 0 013.716-.192zM19.532 19.439a1.86 1.86 0 11-3.715.192 1.86 1.86 0 013.715-.192zM53.951 19.633a1.86 1.86 0 11-3.715-.195 1.86 1.86 0 013.715.195zM43.718 19.632a1.86 1.86 0 11-3.716-.194 1.86 1.86 0 013.716.194zM51.589 25.556a.846.846 0 00-1.139.445c-.363.833-1.032 1.436-1.82 1.688a5.239 5.239 0 00.972-2.871v-.015c.241-.241.4-.571.424-.944.049-.793-.531-1.479-1.295-1.53-.762-.051-1.421.55-1.472 1.344-.031.49.18.939.524 1.223-.133 1.721-1.55 3.049-3.223 2.99-1.259-.047-2.361-.868-2.811-2.093a.892.892 0 00-1.168-.541c-.466.185-.699.727-.521 1.213.709 1.931 2.451 3.225 4.437 3.299a4.725 4.725 0 001.99-.361 4.395 4.395 0 001.316.204c1.807 0 3.448-1.111 4.213-2.867.196-.45.005-.981-.427-1.184zM20.856 30.518a.95.95 0 00-1.259.447 4.445 4.445 0 01-3.997 2.511c-2.127 0-3.905-1.467-4.326-3.483a2.085 2.085 0 001.142-1.965 2.099 2.099 0 00-2.211-1.979 2.095 2.095 0 00-1.995 2.193c.04.775.503 1.427 1.152 1.755a6.201 6.201 0 001.512 3.236 4.436 4.436 0 01-2.564-2.268.948.948 0 00-1.257-.447.934.934 0 00-.45 1.249c1.038 2.176 3.277 3.582 5.704 3.582.561 0 1.111-.077 1.646-.22.531.143 1.085.22 1.647.22 2.427 0 4.666-1.406 5.705-3.582a.937.937 0 00-.449-1.249zM95.416 33.488c-2.592 0-4.481-1.407-4.481-4.223 0-2.426-.235-9.343-.669-13.333l-3.739 11.34c-.546 1.641-1.689 4.531-2.711 6.216H81.73c-2.557 0-4.562-1.916-6.253-7.388l-1.379-4.497a92.68 92.68 0 00-1.926-5.746c-.472 4.614-.824 13.174-.824 17.631h-2.794c-2.281 0-4.368-1.563-4.368-4.223 0-7.742 1.063-17.085 2.364-22.753h2.593c4.328 0 6.532 2.032 7.514 4.417l2.123 5.241c.905 2.267 2.046 5.353 2.635 7.62.592-1.991 1.416-4.376 2.243-6.333l2.596-6.176c.982-2.304 2.283-3.945 3.266-4.769h1.377c3.931 0 5.819 2.153 6.331 6.021.709 5.275 1.377 13.567 1.377 20.955h-3.189zM111.976 33.674c-6.848 0-10.581-3.429-10.581-10.372V11.349h2.849c3.194 0 4.578 1.106 4.578 4.421v7.73c0 3.194 1.463 4.179 3.462 4.179 1.733 0 3.119-1.027 3.119-4.458V11.349h2.846c2.928 0 4.542 1.264 4.542 4.421v7.73c0 6.939-4.311 10.174-10.815 10.174zM133.918 33.86c-5.764 0-7.841-2.194-7.841-5.392v-2.196h.194c1.382 1.075 3.499 1.914 6.496 1.914 2.651 0 3.498-.638 3.498-1.718 0-.997-.503-1.399-4.882-2.037-3.804-.559-5.802-2.358-5.802-5.876 0-5.271 4.804-7.95 9.645-7.95 4.687 0 7.531 1.96 7.531 5.235v2.278h-.192c-1.42-1.08-3.65-1.841-6.492-1.841-2.731 0-3.613.761-3.613 1.68 0 .84.461 1.119 4.881 1.879 3.532.6 5.915 2.597 5.915 6.314 0 4.715-3.532 7.71-9.338 7.71zM149.637 7.952c1.011-.738 2.382-1.44 3.99-1.44h.811v5.221h6.492v2.614c0 1.832-2.019 3.236-3.753 3.236h-2.739v7.755c0 1.443.922 2.302 2.418 2.302 1.815 0 2.66-.155 3.471-.467h.198v2.883c0 1.793-1.695 3.432-5.688 3.432-3.788 0-7.86-1.756-7.86-7.643v-13.29c0-1.951 1.167-3.511 2.66-4.603zM169.502 33.795c-3.948 0-7.032-1.985-7.032-7.14v-14.32h1.834c4.218 0 5.586 1.229 5.586 5.199v8.009c0 1.944.897 2.538 2.969 2.538h.899v2.221c0 2.621-1.954 3.493-4.256 3.493zm-3.518-22.658c-2.148 0-3.906-1.668-3.906-3.73V3.681h3.906c2.149 0 3.868 1.663 3.868 3.726 0 2.062-1.719 3.73-3.868 3.73z"/></g></svg>