<svg xmlns="http://www.w3.org/2000/svg" viewBox="620 533 1000 400"><path d="M1265.3 534.3h-53.4c-4.5 0-8.2 3.7-8.2 8.2v99.9c0 5.4-6.3 8.3-10.4 4.8-22.1-18.8-47-25.8-77.8-25.8-20 0-39.4 4.7-57.2 12.6-57.7 25.7-91.3 80.9-91.3 143.3 0 82.9 63.5 154.8 148.5 154.8 30.2 0 62.7-10.2 83.7-32.1 3.2-3.3 8.4-1.9 9.8 1.9v12.8c0 4.4 3.5 7.9 7.9 7.9h48.6c4.4 0 7.9-3.5 7.9-7.9V542.5c.1-4.5-3.6-8.2-8.1-8.2zm-144.5 327.5c-49.8 0-96.8-36.2-96.8-85.6 0-49.4 48.1-84.5 97.4-84.5 50.4 0 95.2 35.2 95.2 84.5-.1 50.4-44.3 85.6-95.8 85.6zm-344-240.4c-86.1 0-155.4 70.3-155.4 155.9 0 85 70.4 154.8 155.4 154.8 88.2 0 154.3-67.7 154.3-155.9 0-85.5-68.2-154.8-154.3-154.8zm0 240.4c-49.8 0-96.8-36.2-96.8-85.5s48.2-84.5 97.4-84.5c50.4 0 95.2 35.2 95.2 84.5-.1 50.4-44.3 85.5-95.8 85.5zm836.7-229.9h-48.6c-4.4 0-7.9 3.5-7.9 7.9v12.8c-1.4 3.9-6.6 5.3-9.8 1.9-21-21.9-53.5-32.1-83.7-32.1-84.9 0-148.5 71.9-148.5 154.8S1378.5 932 1463.5 932c30.2 0 62.7-10.2 83.7-32.1 3.2-3.3 8.4-1.9 9.8 1.9v12.8c0 4.4 3.5 7.9 7.9 7.9h48.6c4.4 0 7.9-3.5 7.9-7.9V639.8c0-4.4-3.5-7.9-7.9-7.9zm-144.8 229.9c-49.8 0-96.8-36.2-96.8-85.6 0-49.4 48.1-84.5 97.4-84.5 50.4 0 95.2 35.2 95.2 84.5 0 50.4-44.3 85.6-95.8 85.6z"/></svg>
