<svg viewBox="0 0 103 32" xmlns="http://www.w3.org/2000/svg"><path fill="#063D65" d="M45.677 16.046v-2.558a1.247 1.247 0 0 0-.793-1.16 1.304 1.304 0 0 0-.501-.092h-7.858c-.343 0-.673.131-.924.369a1.25 1.25 0 0 0-.37.883v2.505a1.248 1.248 0 0 0 .793 1.16c.158.067.33.093.502.093h7.857c.343 0 .673-.132.924-.37a1.11 1.11 0 0 0 .37-.844v.014Zm2.601 0a3.78 3.78 0 0 1-.29 1.477 3.654 3.654 0 0 1-.872 1.226c-.356.356-.78.646-1.255.844a3.62 3.62 0 0 1-1.492.277h-7.857a3.972 3.972 0 0 1-2.786-1.121 3.618 3.618 0 0 1-.858-1.226 3.725 3.725 0 0 1-.304-1.464v-2.558c0-.5.092-.989.277-1.437.198-.461.476-.87.832-1.213a3.75 3.75 0 0 1 1.281-.844c.475-.197.99-.29 1.505-.263h7.857a3.9 3.9 0 0 1 1.506.263c.475.198.911.475 1.28.844a3.5 3.5 0 0 1 .833 1.213c.198.462.29.95.277 1.437v2.558h.053l.013-.013Zm-19.438 0v-2.558a1.247 1.247 0 0 0-.792-1.16 1.304 1.304 0 0 0-.502-.092h-7.857a1.34 1.34 0 0 0-.924.369c-.238.237-.37.554-.37.883v2.505a1.247 1.247 0 0 0 .792 1.16c.159.067.33.093.502.093h7.857c.343 0 .674-.132.924-.37a1.11 1.11 0 0 0 .37-.844v.014Zm-10.458 7.305h-.33a2.216 2.216 0 0 1-1.44-.633 2.243 2.243 0 0 1-.66-1.424v-7.806c-.04-.488.026-.962.185-1.424.158-.461.41-.87.753-1.226.37-.37.805-.66 1.28-.844.476-.198.99-.29 1.506-.264h7.857a3.91 3.91 0 0 1 1.505.264c.476.198.911.475 1.281.844.357.343.647.752.832 1.213.198.461.29.95.277 1.437v2.505c0 .501-.079 1.016-.29 1.477a3.655 3.655 0 0 1-.872 1.226 3.893 3.893 0 0 1-1.254.844c-.476.198-.977.29-1.492.277h-7.857c-.436 0-.885-.053-1.308-.185v3.719h.027Zm-3.407-6.659c0 .83-.317 1.622-.885 2.228a2.88 2.88 0 0 1-.99.7c-.37.157-.78.236-1.189.236H2.469a2.27 2.27 0 0 1-1.531-.593 2.325 2.325 0 0 1-.753-1.45v-.514h11.634c.422 0 .647-.185.647-.607 0-.092 0-.171-.027-.264a.595.595 0 0 0-.145-.224.66.66 0 0 0-.225-.145c-.079-.026-.171-.04-.264-.026H3.116c-.409 0-.818-.08-1.188-.237a2.885 2.885 0 0 1-.99-.7 2.878 2.878 0 0 1-.7-.988C.066 13.738 0 13.343 0 12.92c0-.83.317-1.635.885-2.228a3.037 3.037 0 0 1 2.192-.923h9.626c.515.053.99.264 1.36.62.37.356.608.83.687 1.331v.554H3.116c-.422 0-.607.237-.607.646 0 .409.185.607.607.607h8.795c.41 0 .819.079 1.189.237.37.158.713.396 1.003.686.581.593.898 1.397.885 2.228m67.557-9.281h2.087v12.46h-.7a2.287 2.287 0 0 1-1.48-.633 2.325 2.325 0 0 1-.7-1.45V9.77h-2.23v-.277a2.294 2.294 0 0 1 .725-1.49 2.246 2.246 0 0 1 1.546-.593h.739l.013-.013Zm-26.502 4.746h-2.747c-.343 0-.674.132-.925.37-.237.237-.37.553-.37.883v6.329h-.461a2.24 2.24 0 0 1-1.413-.594 2.262 2.262 0 0 1-.727-1.358v-4.377c0-.501.093-.989.278-1.437.198-.462.475-.87.832-1.213.37-.37.805-.66 1.28-.844.476-.198.99-.29 1.506-.264h5.493a2.382 2.382 0 0 1 1.374.673c.37.369.607.857.673 1.37v.423l-4.793.053v-.014Zm13.39.132h-4.979v7.582h-.462a2.281 2.281 0 0 1-1.426-.686 2.296 2.296 0 0 1-.62-1.45V9.533c0-.607.237-1.187.673-1.609a2.292 2.292 0 0 1 1.61-.672h.186v2.505h2.931a2.33 2.33 0 0 1 1.453.699c.383.395.607.923.634 1.49v.33Z"></path><path fill="#D0043C" d="M93.294 0c4.279-.053 7.58 1.16 8.98 3.718 3.063 5.538-3.724 15.163-15.16 21.57-11.435 6.37-23.254 7.068-26.318 1.53a6.323 6.323 0 0 1-.739-3.204v-.422c0-.567.053-1.12.145-1.674.198.237.41.461.647.646.212.145.45.25.7.33v.553c.093.7.317 1.372.647 2.005 2.747 4.93 12.836 4.601 22.792-.646l2.985-1.715C97.045 16.97 102.115 9.02 99.46 4.272c-1.16-2.136-3.723-3.257-7.024-3.48-4.609 0-10.459 1.62-16.19 4.838a40.662 40.662 0 0 0-4.885 3.164c-.238-.237-.515-.461-.793-.698a41.932 41.932 0 0 1 4.886-3.112C81.621 1.674 87.894-.092 92.78 0h.515Z"></path></svg>