<svg xmlns="http://www.w3.org/2000/svg" version="1.1" viewBox="0 0 433.5 169.9"><path d="M256.2 57l-27.4 66.4h-11.7L190.5 57h16.7l16.4 43.5h.2L240.5 57h15.7zm12 66.4h14.6V57h-14.6v66.4zM298.7 57v13h19v53.5h14.6V70h19V57h-52.6zm90.8 0h-12.1l-28.7 66.4h16.1l5.5-14.1h25.8l5.7 14.1h16.5L389.5 57zM375 97l8.1-20.6 8.2 20.6H375zM88.8 11.3c-40.7 0-73.7 33-73.7 73.7s33 73.7 73.7 73.7 73.7-33 73.7-73.7-33-73.7-73.7-73.7zM91 123.4c-11.3 0-16.6-13.8-16.6-13.8L50.6 56.8h13.2c6.6 0 11.6 3.6 14.1 9.1l25.9 57.5H91zM127.3 58c-2.4 1-5.1 3-6.5 7.5l-13.4 42.1-12.6-28.7 4.6-13.4c2.8-8.7 10.4-8.7 12.7-8.7h15.2s.6 0 .6.5-.6.7-.6.7z" fill="#3a1649"/></svg>
