<svg xmlns="http://www.w3.org/2000/svg" fill="none" viewBox="0 0 150 34" height="34" width="150">
<g clip-path="url(#clip0_4_690)">
<path fill="#99F500" d="M24.541 34H15.2346L12.3141 23.7116L9.37179 34H0L6.75641 16.0743L0.239744 0H9.37179L12.2923 9.65717L15.2346 0H24.3013L17.7845 16.0743L24.541 34Z"></path>
<path fill="#99F500" d="M50.6736 34H41.3671L38.4467 23.7116L35.5261 34H26.1543L32.9108 16.0743L26.3722 0H35.5043L38.4249 9.65717L41.3671 0H50.4339L43.9171 16.0743L50.6736 34Z"></path>
<path fill="#99F500" d="M67.9996 34V25.9418H60.8291V0H52.2637V33.9789L67.9996 34Z" clip-rule="evenodd" fill-rule="evenodd"></path>
<g clip-path="url(#clip1_4_690)">
<path fill="white" d="M77.8621 10.2592H81.3459C81.4494 12.107 82.7305 12.7131 84.4946 12.7131C86.2586 12.7131 87.1407 11.9346 87.1407 11.0131C87.1407 10.0079 86.3227 9.64819 85.0612 9.37717L82.563 8.83022C80.0007 8.26355 78.1578 7.02674 78.1578 4.31659C78.1578 1.96616 80.1534 -0.088623 84.0314 -0.088623C88.1459 -0.088623 90.1612 1.69515 90.3041 4.69602H86.9041C86.8007 3.37544 86.0024 2.68065 84.2383 2.68065C82.7059 2.68065 81.7844 3.3508 81.7844 4.25254C81.7844 5.15428 82.4151 5.61746 83.8392 5.88848L86.505 6.39109C89.2349 6.91833 90.8265 8.23891 90.8265 10.7766C90.8265 13.9007 88.2888 15.4775 84.4059 15.4775C80.1436 15.4775 77.8818 13.4621 77.8572 10.2543L77.8621 10.2592Z"></path>
<path fill="white" d="M92.1125 4.38062H95.3007V5.78497C95.9708 4.77975 97.1288 4.12439 98.4691 4.12439C101.238 4.12439 103.022 6.34671 103.022 9.77135C103.022 13.196 101.238 15.4183 98.4691 15.4183C97.1239 15.4183 96.0546 14.8319 95.3844 13.8858V19.0253H92.1125V4.37569V4.38062ZM97.5279 12.7969C98.8731 12.7969 99.7108 11.7276 99.7108 9.77627C99.7108 7.82497 98.8731 6.75569 97.5279 6.75569C96.1827 6.75569 95.3253 7.82497 95.3253 9.77627C95.3253 11.7276 96.1876 12.7969 97.5279 12.7969Z"></path>
<path fill="white" d="M103.865 9.77623C103.865 6.35652 106.087 4.12927 109.428 4.12927C112.769 4.12927 114.966 6.35159 114.966 9.77623C114.966 13.2009 112.744 15.4232 109.428 15.4232C106.112 15.4232 103.865 13.2009 103.865 9.77623ZM109.423 12.8165C110.684 12.8165 111.645 11.8507 111.645 9.7713C111.645 7.69188 110.68 6.73101 109.423 6.73101C108.166 6.73101 107.176 7.69681 107.176 9.7713C107.176 11.8458 108.162 12.8165 109.423 12.8165Z"></path>
<path fill="white" d="M115.947 4.38052H119.135V6.20864C119.618 5.09501 120.604 4.29675 122.22 4.29675H122.535V7.29762H122.097C120.268 7.29762 119.224 8.19936 119.224 10.2344V15.1669H115.952V4.38052H115.947Z"></path>
<path fill="white" d="M124.427 12.1858V6.77045H122.959V4.38059H124.427V2.01045L127.699 1.12842V4.38059H129.567V6.77045H127.699V11.9099C127.699 12.4962 128.034 12.7278 128.665 12.7278H129.36V15.162H127.62C125.541 15.162 124.432 14.4081 124.432 12.1809L124.427 12.1858Z"></path>
<path fill="white" d="M130.488 11.6634H133.676C133.844 12.8362 134.538 13.2353 135.647 13.2353C136.593 13.2353 137.18 12.8165 137.18 12.2498C137.18 11.6831 136.78 11.4515 135.711 11.1608L134.139 10.7223C132.02 10.1359 130.636 9.37705 130.636 7.53416C130.636 5.43503 132.523 4.13416 135.337 4.13416C138.801 4.13416 140.077 5.73068 140.185 7.80517H137.101C137.061 6.67184 136.303 6.31705 135.381 6.31705C134.46 6.31705 133.913 6.7556 133.913 7.30256C133.913 7.88894 134.435 8.05647 135.174 8.26836L137.209 8.83503C139.037 9.33763 140.506 10.0324 140.506 11.9197C140.506 14.1666 138.618 15.4231 135.554 15.4231C132.701 15.4231 130.685 14.3539 130.498 11.6684L130.488 11.6634Z"></path>
<path fill="white" d="M78.1577 30.0284V23.189H81.4296V29.3188C81.4296 30.6837 81.9322 31.4377 83.1099 31.4377C84.1397 31.4377 85.1893 30.7429 85.1893 28.8359V23.189H88.4612V33.9753H85.2731V32.6548C84.5783 33.4727 83.6174 34.2266 81.9568 34.2266C79.7542 34.2266 78.1577 32.9258 78.1577 30.0284Z"></path>
<path fill="white" d="M90.1809 23.189H93.369V24.6377C94.0638 23.736 95.1725 22.9377 96.8725 22.9377C99.0357 22.9377 100.652 24.2386 100.652 27.136V33.9754H97.38V27.7864C97.38 26.4215 96.8331 25.707 95.616 25.707C94.4826 25.707 93.4528 26.3772 93.4528 28.3088V33.9754H90.1809V23.189Z"></path>
<path fill="white" d="M102.224 19.035H105.496V21.8043H102.224V19.035ZM102.224 23.1889H105.496V33.9753H102.224V23.1889Z"></path>
<path fill="white" d="M107.871 30.9942V25.5788H106.402V23.1889H107.871V20.8188L111.143 19.9368V23.1889H113.01V25.5788H111.143V30.7182C111.143 31.3046 111.478 31.5362 112.108 31.5362H112.803V33.9704H111.064C108.984 33.9704 107.876 33.2165 107.876 30.9892L107.871 30.9942Z"></path>
<path fill="white" d="M113.764 28.5797C113.764 25.1797 115.967 22.9327 119.263 22.9327C122.56 22.9327 124.551 25.2635 124.551 28.8951V29.3977H116.933C117.144 31.0336 118.022 31.8122 119.263 31.8122C120.352 31.8122 120.944 31.2652 121.175 30.5113H124.408C124.112 32.842 121.934 34.2267 119.268 34.2267C116.016 34.2267 113.769 32.0043 113.769 28.5797H113.764ZM121.407 27.3626C121.155 26.1011 120.377 25.3472 119.268 25.3472C118.16 25.3472 117.297 25.9336 116.982 27.3626H121.412H121.407Z"></path>
<path fill="white" d="M129.779 30.9548C129.779 29.0873 130.996 27.8702 133.868 27.5992L136.973 27.3035V26.8847C136.973 25.8548 136.406 25.2684 135.317 25.2684C134.312 25.2684 133.681 25.707 133.533 26.6974H130.281C130.493 24.347 132.045 22.9426 135.337 22.9426C138.628 22.9426 140.186 24.411 140.186 26.8896V33.9803H137.037V32.847C136.322 33.6847 135.169 34.2316 133.573 34.2316C131.35 34.2316 129.774 33.0589 129.774 30.9597L129.779 30.9548ZM134.622 32.0241C135.859 32.0241 136.973 31.3934 136.973 29.718V29.2794L134.667 29.5307C133.681 29.6342 133.095 30.0974 133.095 30.8316C133.095 31.5264 133.642 32.029 134.627 32.029L134.622 32.0241Z"></path>
<path fill="white" d="M141.757 19.035H145.029V33.9753H141.757V19.035Z"></path>
<path fill="white" d="M146.709 19.035H149.981V33.9753H146.709V19.035Z"></path>
</g>
</g>
<defs>
<clipPath id="clip0_4_690">
<rect fill="white" height="34" width="150"></rect>
</clipPath>
<clipPath id="clip1_4_690">
<rect transform="translate(78)" fill="white" height="34" width="71.942"></rect>
</clipPath>
</defs>
</svg>
